<mxfile host="app.diagrams.net" modified="2022-12-18T05:47:34.842Z" agent="5.0 (Windows NT 10.0; Win64; x64) AppleWebKit/537.36 (KHTML, like Gecko) Chrome/108.0.0.0 Safari/537.36" etag="n-9ppZHsllTXBNHUt_gE" version="20.6.0" type="github">
  <diagram id="C5RBs43oDa-KdzZeNtuy" name="Page-1">
    <mxGraphModel dx="1038" dy="571" grid="1" gridSize="10" guides="1" tooltips="1" connect="1" arrows="1" fold="1" page="1" pageScale="1" pageWidth="2000" pageHeight="2520" math="0" shadow="0">
      <root>
        <mxCell id="WIyWlLk6GJQsqaUBKTNV-0" />
        <mxCell id="WIyWlLk6GJQsqaUBKTNV-1" parent="WIyWlLk6GJQsqaUBKTNV-0" />
        <mxCell id="zkfFHV4jXpPFQw0GAbJ--0" value="&lt;&lt;data class&gt;&gt;&#xa;User" style="swimlane;fontStyle=0;align=center;verticalAlign=top;childLayout=stackLayout;horizontal=1;startSize=34;horizontalStack=0;resizeParent=1;resizeLast=0;collapsible=1;marginBottom=0;rounded=0;shadow=0;strokeWidth=1;" parent="WIyWlLk6GJQsqaUBKTNV-1" vertex="1">
          <mxGeometry x="500" y="506" width="200" height="252" as="geometry">
            <mxRectangle x="230" y="140" width="160" height="26" as="alternateBounds" />
          </mxGeometry>
        </mxCell>
        <mxCell id="zkfFHV4jXpPFQw0GAbJ--1" value="+ firstName: String { readOnly }" style="text;align=left;verticalAlign=top;spacingLeft=4;spacingRight=4;overflow=hidden;rotatable=0;points=[[0,0.5],[1,0.5]];portConstraint=eastwest;" parent="zkfFHV4jXpPFQw0GAbJ--0" vertex="1">
          <mxGeometry y="34" width="200" height="26" as="geometry" />
        </mxCell>
        <mxCell id="zkfFHV4jXpPFQw0GAbJ--2" value="+ lastName: String { readOnly }" style="text;align=left;verticalAlign=top;spacingLeft=4;spacingRight=4;overflow=hidden;rotatable=0;points=[[0,0.5],[1,0.5]];portConstraint=eastwest;rounded=0;shadow=0;html=0;" parent="zkfFHV4jXpPFQw0GAbJ--0" vertex="1">
          <mxGeometry y="60" width="200" height="26" as="geometry" />
        </mxCell>
        <mxCell id="zkfFHV4jXpPFQw0GAbJ--3" value="+ email: String { readOnly }" style="text;align=left;verticalAlign=top;spacingLeft=4;spacingRight=4;overflow=hidden;rotatable=0;points=[[0,0.5],[1,0.5]];portConstraint=eastwest;rounded=0;shadow=0;html=0;" parent="zkfFHV4jXpPFQw0GAbJ--0" vertex="1">
          <mxGeometry y="86" width="200" height="26" as="geometry" />
        </mxCell>
        <mxCell id="NYYMoiH2fDYC1uSWcf2y-0" value="+ username: String { readOnly }" style="text;align=left;verticalAlign=top;spacingLeft=4;spacingRight=4;overflow=hidden;rotatable=0;points=[[0,0.5],[1,0.5]];portConstraint=eastwest;rounded=0;shadow=0;html=0;" parent="zkfFHV4jXpPFQw0GAbJ--0" vertex="1">
          <mxGeometry y="112" width="200" height="26" as="geometry" />
        </mxCell>
        <mxCell id="zkfFHV4jXpPFQw0GAbJ--4" value="" style="line;html=1;strokeWidth=1;align=left;verticalAlign=middle;spacingTop=-1;spacingLeft=3;spacingRight=3;rotatable=0;labelPosition=right;points=[];portConstraint=eastwest;" parent="zkfFHV4jXpPFQw0GAbJ--0" vertex="1">
          <mxGeometry y="138" width="200" height="8" as="geometry" />
        </mxCell>
        <mxCell id="NYYMoiH2fDYC1uSWcf2y-163" value="+ User(&#xa;        firstName: String, &#xa;        lastName: String,&#xa;        email: String,&#xa;        username: String,&#xa;    )" style="text;align=left;verticalAlign=top;spacingLeft=4;spacingRight=4;overflow=hidden;rotatable=0;points=[[0,0.5],[1,0.5]];portConstraint=eastwest;rounded=0;shadow=0;html=0;" parent="zkfFHV4jXpPFQw0GAbJ--0" vertex="1">
          <mxGeometry y="146" width="200" height="106" as="geometry" />
        </mxCell>
        <mxCell id="zkfFHV4jXpPFQw0GAbJ--17" value="UserRepository" style="swimlane;fontStyle=0;align=center;verticalAlign=top;childLayout=stackLayout;horizontal=1;startSize=26;horizontalStack=0;resizeParent=1;resizeLast=0;collapsible=1;marginBottom=0;rounded=0;shadow=0;strokeWidth=1;" parent="WIyWlLk6GJQsqaUBKTNV-1" vertex="1">
          <mxGeometry x="40" y="10" width="240" height="200" as="geometry">
            <mxRectangle x="550" y="140" width="160" height="26" as="alternateBounds" />
          </mxGeometry>
        </mxCell>
        <mxCell id="zkfFHV4jXpPFQw0GAbJ--18" value="-database: Database" style="text;align=left;verticalAlign=top;spacingLeft=4;spacingRight=4;overflow=hidden;rotatable=0;points=[[0,0.5],[1,0.5]];portConstraint=eastwest;" parent="zkfFHV4jXpPFQw0GAbJ--17" vertex="1">
          <mxGeometry y="26" width="240" height="26" as="geometry" />
        </mxCell>
        <mxCell id="NYYMoiH2fDYC1uSWcf2y-206" value="-client: HttpClient" style="text;align=left;verticalAlign=top;spacingLeft=4;spacingRight=4;overflow=hidden;rotatable=0;points=[[0,0.5],[1,0.5]];portConstraint=eastwest;" parent="zkfFHV4jXpPFQw0GAbJ--17" vertex="1">
          <mxGeometry y="52" width="240" height="26" as="geometry" />
        </mxCell>
        <mxCell id="zkfFHV4jXpPFQw0GAbJ--23" value="" style="line;html=1;strokeWidth=1;align=left;verticalAlign=middle;spacingTop=-1;spacingLeft=3;spacingRight=3;rotatable=0;labelPosition=right;points=[];portConstraint=eastwest;" parent="zkfFHV4jXpPFQw0GAbJ--17" vertex="1">
          <mxGeometry y="78" width="240" height="8" as="geometry" />
        </mxCell>
        <mxCell id="NYYMoiH2fDYC1uSWcf2y-207" value="+UserRespository(&#xa;        database: Database,&#xa;        client: HttpClient&#xa;    )" style="text;align=left;verticalAlign=top;spacingLeft=4;spacingRight=4;overflow=hidden;rotatable=0;points=[[0,0.5],[1,0.5]];portConstraint=eastwest;" parent="zkfFHV4jXpPFQw0GAbJ--17" vertex="1">
          <mxGeometry y="86" width="240" height="88" as="geometry" />
        </mxCell>
        <mxCell id="NYYMoiH2fDYC1uSWcf2y-2" value="&lt;&lt;interface&gt;&gt;&#xa;IUserRepository" style="swimlane;fontStyle=0;align=center;verticalAlign=top;childLayout=stackLayout;horizontal=1;startSize=40;horizontalStack=0;resizeParent=1;resizeLast=0;collapsible=1;marginBottom=0;rounded=0;shadow=0;strokeWidth=1;" parent="WIyWlLk6GJQsqaUBKTNV-1" vertex="1">
          <mxGeometry x="280" y="254" width="460" height="230" as="geometry">
            <mxRectangle x="550" y="140" width="160" height="26" as="alternateBounds" />
          </mxGeometry>
        </mxCell>
        <mxCell id="NYYMoiH2fDYC1uSWcf2y-8" value="" style="line;html=1;strokeWidth=1;align=left;verticalAlign=middle;spacingTop=-1;spacingLeft=3;spacingRight=3;rotatable=0;labelPosition=right;points=[];portConstraint=eastwest;" parent="NYYMoiH2fDYC1uSWcf2y-2" vertex="1">
          <mxGeometry y="40" width="460" height="8" as="geometry" />
        </mxCell>
        <mxCell id="NYYMoiH2fDYC1uSWcf2y-9" value="+ { suspend } login(loginRequestData: LoginDTO): Result&lt;String&gt;" style="text;align=left;verticalAlign=top;spacingLeft=4;spacingRight=4;overflow=hidden;rotatable=0;points=[[0,0.5],[1,0.5]];portConstraint=eastwest;" parent="NYYMoiH2fDYC1uSWcf2y-2" vertex="1">
          <mxGeometry y="48" width="460" height="26" as="geometry" />
        </mxCell>
        <mxCell id="NYYMoiH2fDYC1uSWcf2y-10" value="+ { suspend } register(registerRequestData: RegisterDTO): Result&lt;String&gt;" style="text;align=left;verticalAlign=top;spacingLeft=4;spacingRight=4;overflow=hidden;rotatable=0;points=[[0,0.5],[1,0.5]];portConstraint=eastwest;" parent="NYYMoiH2fDYC1uSWcf2y-2" vertex="1">
          <mxGeometry y="74" width="460" height="26" as="geometry" />
        </mxCell>
        <mxCell id="NYYMoiH2fDYC1uSWcf2y-11" value="+ { suspend } getUserByEmail(email: String): Result&lt;User&gt;" style="text;align=left;verticalAlign=top;spacingLeft=4;spacingRight=4;overflow=hidden;rotatable=0;points=[[0,0.5],[1,0.5]];portConstraint=eastwest;" parent="NYYMoiH2fDYC1uSWcf2y-2" vertex="1">
          <mxGeometry y="100" width="460" height="26" as="geometry" />
        </mxCell>
        <mxCell id="NYYMoiH2fDYC1uSWcf2y-12" value="+ { suspend } getUsers(): Result&lt;List&lt;User&gt;&gt;" style="text;align=left;verticalAlign=top;spacingLeft=4;spacingRight=4;overflow=hidden;rotatable=0;points=[[0,0.5],[1,0.5]];portConstraint=eastwest;" parent="NYYMoiH2fDYC1uSWcf2y-2" vertex="1">
          <mxGeometry y="126" width="460" height="26" as="geometry" />
        </mxCell>
        <mxCell id="NYYMoiH2fDYC1uSWcf2y-13" value="+ { suspend } sendPasswordChangeRequest(email: String): Result&lt;String&gt;" style="text;align=left;verticalAlign=top;spacingLeft=4;spacingRight=4;overflow=hidden;rotatable=0;points=[[0,0.5],[1,0.5]];portConstraint=eastwest;" parent="NYYMoiH2fDYC1uSWcf2y-2" vertex="1">
          <mxGeometry y="152" width="460" height="26" as="geometry" />
        </mxCell>
        <mxCell id="NYYMoiH2fDYC1uSWcf2y-15" value="+ { suspend } sendPasswordConfirmation(otp: String): Result&lt;Unit&gt;" style="text;align=left;verticalAlign=top;spacingLeft=4;spacingRight=4;overflow=hidden;rotatable=0;points=[[0,0.5],[1,0.5]];portConstraint=eastwest;" parent="NYYMoiH2fDYC1uSWcf2y-2" vertex="1">
          <mxGeometry y="178" width="460" height="26" as="geometry" />
        </mxCell>
        <mxCell id="TLC3tW-T-meMetMmAtpj-209" value="+ { suspend } changePassword(email: String, newPassword: String): Result&lt;String&gt;" style="text;align=left;verticalAlign=top;spacingLeft=4;spacingRight=4;overflow=hidden;rotatable=0;points=[[0,0.5],[1,0.5]];portConstraint=eastwest;" vertex="1" parent="NYYMoiH2fDYC1uSWcf2y-2">
          <mxGeometry y="204" width="460" height="26" as="geometry" />
        </mxCell>
        <mxCell id="NYYMoiH2fDYC1uSWcf2y-16" value="" style="endArrow=block;dashed=1;endFill=0;endSize=12;html=1;rounded=0;" parent="WIyWlLk6GJQsqaUBKTNV-1" source="zkfFHV4jXpPFQw0GAbJ--17" target="NYYMoiH2fDYC1uSWcf2y-2" edge="1">
          <mxGeometry width="160" relative="1" as="geometry">
            <mxPoint x="760" y="360" as="sourcePoint" />
            <mxPoint x="920" y="360" as="targetPoint" />
          </mxGeometry>
        </mxCell>
        <mxCell id="NYYMoiH2fDYC1uSWcf2y-21" value="Use" style="endArrow=open;endSize=12;dashed=1;html=1;rounded=0;" parent="WIyWlLk6GJQsqaUBKTNV-1" source="zkfFHV4jXpPFQw0GAbJ--0" target="NYYMoiH2fDYC1uSWcf2y-2" edge="1">
          <mxGeometry width="160" relative="1" as="geometry">
            <mxPoint x="760" y="360" as="sourcePoint" />
            <mxPoint x="920" y="360" as="targetPoint" />
          </mxGeometry>
        </mxCell>
        <mxCell id="NYYMoiH2fDYC1uSWcf2y-22" value="&lt;&lt;sealed class&gt;&gt;&#xa;Result&lt;T&gt;" style="swimlane;fontStyle=0;align=center;verticalAlign=top;childLayout=stackLayout;horizontal=1;startSize=40;horizontalStack=0;resizeParent=1;resizeParentMax=0;resizeLast=0;collapsible=1;marginBottom=0;" parent="WIyWlLk6GJQsqaUBKTNV-1" vertex="1">
          <mxGeometry x="820" y="642" width="160" height="48" as="geometry" />
        </mxCell>
        <mxCell id="NYYMoiH2fDYC1uSWcf2y-24" value="" style="line;strokeWidth=1;fillColor=none;align=left;verticalAlign=middle;spacingTop=-1;spacingLeft=3;spacingRight=3;rotatable=0;labelPosition=right;points=[];portConstraint=eastwest;strokeColor=inherit;" parent="NYYMoiH2fDYC1uSWcf2y-22" vertex="1">
          <mxGeometry y="40" width="160" height="8" as="geometry" />
        </mxCell>
        <mxCell id="NYYMoiH2fDYC1uSWcf2y-26" value="Success&lt;T&gt;" style="swimlane;fontStyle=0;align=center;verticalAlign=top;childLayout=stackLayout;horizontal=1;startSize=26;horizontalStack=0;resizeParent=1;resizeParentMax=0;resizeLast=0;collapsible=1;marginBottom=0;" parent="WIyWlLk6GJQsqaUBKTNV-1" vertex="1">
          <mxGeometry x="1170" y="652" width="160" height="86" as="geometry" />
        </mxCell>
        <mxCell id="NYYMoiH2fDYC1uSWcf2y-27" value="+ data: T { readOnly }" style="text;strokeColor=none;fillColor=none;align=left;verticalAlign=top;spacingLeft=4;spacingRight=4;overflow=hidden;rotatable=0;points=[[0,0.5],[1,0.5]];portConstraint=eastwest;" parent="NYYMoiH2fDYC1uSWcf2y-26" vertex="1">
          <mxGeometry y="26" width="160" height="26" as="geometry" />
        </mxCell>
        <mxCell id="NYYMoiH2fDYC1uSWcf2y-28" value="" style="line;strokeWidth=1;fillColor=none;align=left;verticalAlign=middle;spacingTop=-1;spacingLeft=3;spacingRight=3;rotatable=0;labelPosition=right;points=[];portConstraint=eastwest;strokeColor=inherit;" parent="NYYMoiH2fDYC1uSWcf2y-26" vertex="1">
          <mxGeometry y="52" width="160" height="8" as="geometry" />
        </mxCell>
        <mxCell id="NYYMoiH2fDYC1uSWcf2y-228" value="+ Success(data: T)" style="text;strokeColor=none;fillColor=none;align=left;verticalAlign=top;spacingLeft=4;spacingRight=4;overflow=hidden;rotatable=0;points=[[0,0.5],[1,0.5]];portConstraint=eastwest;" parent="NYYMoiH2fDYC1uSWcf2y-26" vertex="1">
          <mxGeometry y="60" width="160" height="26" as="geometry" />
        </mxCell>
        <mxCell id="NYYMoiH2fDYC1uSWcf2y-31" value="Error" style="swimlane;fontStyle=0;align=center;verticalAlign=top;childLayout=stackLayout;horizontal=1;startSize=26;horizontalStack=0;resizeParent=1;resizeParentMax=0;resizeLast=0;collapsible=1;marginBottom=0;" parent="WIyWlLk6GJQsqaUBKTNV-1" vertex="1">
          <mxGeometry x="930" y="494" width="190" height="86" as="geometry" />
        </mxCell>
        <mxCell id="NYYMoiH2fDYC1uSWcf2y-33" value="+ message: String { readOnly }" style="text;strokeColor=none;fillColor=none;align=left;verticalAlign=top;spacingLeft=4;spacingRight=4;overflow=hidden;rotatable=0;points=[[0,0.5],[1,0.5]];portConstraint=eastwest;" parent="NYYMoiH2fDYC1uSWcf2y-31" vertex="1">
          <mxGeometry y="26" width="190" height="26" as="geometry" />
        </mxCell>
        <mxCell id="NYYMoiH2fDYC1uSWcf2y-34" value="" style="line;strokeWidth=1;fillColor=none;align=left;verticalAlign=middle;spacingTop=-1;spacingLeft=3;spacingRight=3;rotatable=0;labelPosition=right;points=[];portConstraint=eastwest;strokeColor=inherit;" parent="NYYMoiH2fDYC1uSWcf2y-31" vertex="1">
          <mxGeometry y="52" width="190" height="8" as="geometry" />
        </mxCell>
        <mxCell id="NYYMoiH2fDYC1uSWcf2y-229" value="+ Error(message: String)" style="text;strokeColor=none;fillColor=none;align=left;verticalAlign=top;spacingLeft=4;spacingRight=4;overflow=hidden;rotatable=0;points=[[0,0.5],[1,0.5]];portConstraint=eastwest;" parent="NYYMoiH2fDYC1uSWcf2y-31" vertex="1">
          <mxGeometry y="60" width="190" height="26" as="geometry" />
        </mxCell>
        <mxCell id="NYYMoiH2fDYC1uSWcf2y-35" value="Extends" style="endArrow=block;endSize=16;endFill=0;html=1;rounded=0;" parent="WIyWlLk6GJQsqaUBKTNV-1" source="NYYMoiH2fDYC1uSWcf2y-26" target="NYYMoiH2fDYC1uSWcf2y-22" edge="1">
          <mxGeometry width="160" relative="1" as="geometry">
            <mxPoint x="780" y="410" as="sourcePoint" />
            <mxPoint x="940" y="410" as="targetPoint" />
          </mxGeometry>
        </mxCell>
        <mxCell id="NYYMoiH2fDYC1uSWcf2y-36" value="Extends" style="endArrow=block;endSize=16;endFill=0;html=1;rounded=0;" parent="WIyWlLk6GJQsqaUBKTNV-1" source="NYYMoiH2fDYC1uSWcf2y-31" target="NYYMoiH2fDYC1uSWcf2y-22" edge="1">
          <mxGeometry width="160" relative="1" as="geometry">
            <mxPoint x="780" y="410" as="sourcePoint" />
            <mxPoint x="940" y="410" as="targetPoint" />
          </mxGeometry>
        </mxCell>
        <mxCell id="NYYMoiH2fDYC1uSWcf2y-37" value="Use" style="endArrow=open;endSize=12;dashed=1;html=1;rounded=0;" parent="WIyWlLk6GJQsqaUBKTNV-1" source="NYYMoiH2fDYC1uSWcf2y-22" target="NYYMoiH2fDYC1uSWcf2y-2" edge="1">
          <mxGeometry width="160" relative="1" as="geometry">
            <mxPoint x="590" y="276.1578947368421" as="sourcePoint" />
            <mxPoint x="710" y="268.8947368421053" as="targetPoint" />
            <Array as="points">
              <mxPoint x="800" y="510" />
            </Array>
          </mxGeometry>
        </mxCell>
        <mxCell id="NYYMoiH2fDYC1uSWcf2y-141" value="&lt;&lt;interface&gt;&gt;&#xa;IItemRepository" style="swimlane;fontStyle=0;align=center;verticalAlign=top;childLayout=stackLayout;horizontal=1;startSize=40;horizontalStack=0;resizeParent=1;resizeParentMax=0;resizeLast=0;collapsible=1;marginBottom=0;fontColor=default;" parent="WIyWlLk6GJQsqaUBKTNV-1" vertex="1">
          <mxGeometry x="520" y="764" width="460" height="178" as="geometry" />
        </mxCell>
        <mxCell id="NYYMoiH2fDYC1uSWcf2y-143" value="" style="line;strokeWidth=1;fillColor=none;align=left;verticalAlign=middle;spacingTop=-1;spacingLeft=3;spacingRight=3;rotatable=0;labelPosition=right;points=[];portConstraint=eastwest;strokeColor=inherit;" parent="NYYMoiH2fDYC1uSWcf2y-141" vertex="1">
          <mxGeometry y="40" width="460" height="8" as="geometry" />
        </mxCell>
        <mxCell id="NYYMoiH2fDYC1uSWcf2y-144" value="+ { suspend } getItemsByTitle(title: String): Result&lt;List&lt;ZoteroItem&gt;&gt;" style="text;strokeColor=none;fillColor=none;align=left;verticalAlign=top;spacingLeft=4;spacingRight=4;overflow=hidden;rotatable=0;points=[[0,0.5],[1,0.5]];portConstraint=eastwest;" parent="NYYMoiH2fDYC1uSWcf2y-141" vertex="1">
          <mxGeometry y="48" width="460" height="26" as="geometry" />
        </mxCell>
        <mxCell id="NYYMoiH2fDYC1uSWcf2y-145" value="+ { suspend } addItem(item: ZoteroItem): Result&lt;Unit&gt;" style="text;strokeColor=none;fillColor=none;align=left;verticalAlign=top;spacingLeft=4;spacingRight=4;overflow=hidden;rotatable=0;points=[[0,0.5],[1,0.5]];portConstraint=eastwest;" parent="NYYMoiH2fDYC1uSWcf2y-141" vertex="1">
          <mxGeometry y="74" width="460" height="26" as="geometry" />
        </mxCell>
        <mxCell id="NYYMoiH2fDYC1uSWcf2y-147" value="+ { suspend } deleteItem(item: ZoteroItem): Result&lt;Unit&gt;" style="text;strokeColor=none;fillColor=none;align=left;verticalAlign=top;spacingLeft=4;spacingRight=4;overflow=hidden;rotatable=0;points=[[0,0.5],[1,0.5]];portConstraint=eastwest;" parent="NYYMoiH2fDYC1uSWcf2y-141" vertex="1">
          <mxGeometry y="100" width="460" height="26" as="geometry" />
        </mxCell>
        <mxCell id="NYYMoiH2fDYC1uSWcf2y-148" value="+ { suspend } updateItem(title: String, newItem: ZoteroItem): Result&lt;Unit&gt;" style="text;strokeColor=none;fillColor=none;align=left;verticalAlign=top;spacingLeft=4;spacingRight=4;overflow=hidden;rotatable=0;points=[[0,0.5],[1,0.5]];portConstraint=eastwest;" parent="NYYMoiH2fDYC1uSWcf2y-141" vertex="1">
          <mxGeometry y="126" width="460" height="26" as="geometry" />
        </mxCell>
        <mxCell id="37" value="+ { suspend } searchItem(marchAll: Boolean, searchQueries: List&lt;SearchQuery&gt;)" style="text;strokeColor=none;fillColor=none;align=left;verticalAlign=top;spacingLeft=4;spacingRight=4;overflow=hidden;rotatable=0;points=[[0,0.5],[1,0.5]];portConstraint=eastwest;" parent="NYYMoiH2fDYC1uSWcf2y-141" vertex="1">
          <mxGeometry y="152" width="460" height="26" as="geometry" />
        </mxCell>
        <mxCell id="NYYMoiH2fDYC1uSWcf2y-150" value="ItemRepository" style="swimlane;fontStyle=0;align=center;verticalAlign=top;childLayout=stackLayout;horizontal=1;startSize=26;horizontalStack=0;resizeParent=1;resizeLast=0;collapsible=1;marginBottom=0;rounded=0;shadow=0;strokeWidth=1;" parent="WIyWlLk6GJQsqaUBKTNV-1" vertex="1">
          <mxGeometry x="750" y="1072" width="180" height="160" as="geometry">
            <mxRectangle x="550" y="140" width="160" height="26" as="alternateBounds" />
          </mxGeometry>
        </mxCell>
        <mxCell id="NYYMoiH2fDYC1uSWcf2y-151" value="- database: Database" style="text;align=left;verticalAlign=top;spacingLeft=4;spacingRight=4;overflow=hidden;rotatable=0;points=[[0,0.5],[1,0.5]];portConstraint=eastwest;" parent="NYYMoiH2fDYC1uSWcf2y-150" vertex="1">
          <mxGeometry y="26" width="180" height="26" as="geometry" />
        </mxCell>
        <mxCell id="27" value="-  collectionIdex: int" style="text;align=left;verticalAlign=top;spacingLeft=4;spacingRight=4;overflow=hidden;rotatable=0;points=[[0,0.5],[1,0.5]];portConstraint=eastwest;" parent="NYYMoiH2fDYC1uSWcf2y-150" vertex="1">
          <mxGeometry y="52" width="180" height="26" as="geometry" />
        </mxCell>
        <mxCell id="NYYMoiH2fDYC1uSWcf2y-152" value="" style="line;html=1;strokeWidth=1;align=left;verticalAlign=middle;spacingTop=-1;spacingLeft=3;spacingRight=3;rotatable=0;labelPosition=right;points=[];portConstraint=eastwest;" parent="NYYMoiH2fDYC1uSWcf2y-150" vertex="1">
          <mxGeometry y="78" width="180" height="10" as="geometry" />
        </mxCell>
        <mxCell id="NYYMoiH2fDYC1uSWcf2y-208" value="+ LocalItemRepository(&#xa;        database: Database,&#xa;        collectionIdex: Int&#xa;    )" style="text;align=left;verticalAlign=top;spacingLeft=4;spacingRight=4;overflow=hidden;rotatable=0;points=[[0,0.5],[1,0.5]];portConstraint=eastwest;" parent="NYYMoiH2fDYC1uSWcf2y-150" vertex="1">
          <mxGeometry y="88" width="180" height="72" as="geometry" />
        </mxCell>
        <mxCell id="NYYMoiH2fDYC1uSWcf2y-156" value="" style="endArrow=block;dashed=1;endFill=0;endSize=12;html=1;rounded=0;" parent="WIyWlLk6GJQsqaUBKTNV-1" source="NYYMoiH2fDYC1uSWcf2y-150" target="NYYMoiH2fDYC1uSWcf2y-141" edge="1">
          <mxGeometry width="160" relative="1" as="geometry">
            <mxPoint x="990" y="470" as="sourcePoint" />
            <mxPoint x="890" y="376" as="targetPoint" />
          </mxGeometry>
        </mxCell>
        <mxCell id="NYYMoiH2fDYC1uSWcf2y-158" value="Use" style="endArrow=open;endSize=12;dashed=1;html=1;rounded=0;" parent="WIyWlLk6GJQsqaUBKTNV-1" source="NYYMoiH2fDYC1uSWcf2y-22" target="NYYMoiH2fDYC1uSWcf2y-141" edge="1">
          <mxGeometry width="160" relative="1" as="geometry">
            <mxPoint x="1290" y="296.33333333333326" as="sourcePoint" />
            <mxPoint x="1070" y="275.25" as="targetPoint" />
          </mxGeometry>
        </mxCell>
        <mxCell id="NYYMoiH2fDYC1uSWcf2y-178" value="ZoteroCollection" style="swimlane;fontStyle=1;align=center;verticalAlign=top;childLayout=stackLayout;horizontal=1;startSize=26;horizontalStack=0;resizeParent=1;resizeParentMax=0;resizeLast=0;collapsible=1;marginBottom=0;fontColor=default;" parent="WIyWlLk6GJQsqaUBKTNV-1" vertex="1">
          <mxGeometry x="750" y="1270" width="220" height="150" as="geometry" />
        </mxCell>
        <mxCell id="NYYMoiH2fDYC1uSWcf2y-183" value="+ title: String { readOnly }" style="text;strokeColor=none;fillColor=none;align=left;verticalAlign=top;spacingLeft=4;spacingRight=4;overflow=hidden;rotatable=0;points=[[0,0.5],[1,0.5]];portConstraint=eastwest;fontColor=default;" parent="NYYMoiH2fDYC1uSWcf2y-178" vertex="1">
          <mxGeometry y="26" width="220" height="26" as="geometry" />
        </mxCell>
        <mxCell id="NYYMoiH2fDYC1uSWcf2y-179" value="+ items: Item [1..n] { readOnly }" style="text;strokeColor=none;fillColor=none;align=left;verticalAlign=top;spacingLeft=4;spacingRight=4;overflow=hidden;rotatable=0;points=[[0,0.5],[1,0.5]];portConstraint=eastwest;fontColor=default;" parent="NYYMoiH2fDYC1uSWcf2y-178" vertex="1">
          <mxGeometry y="52" width="220" height="26" as="geometry" />
        </mxCell>
        <mxCell id="NYYMoiH2fDYC1uSWcf2y-180" value="" style="line;strokeWidth=1;fillColor=none;align=left;verticalAlign=middle;spacingTop=-1;spacingLeft=3;spacingRight=3;rotatable=0;labelPosition=right;points=[];portConstraint=eastwest;strokeColor=inherit;fontColor=default;" parent="NYYMoiH2fDYC1uSWcf2y-178" vertex="1">
          <mxGeometry y="78" width="220" height="8" as="geometry" />
        </mxCell>
        <mxCell id="NYYMoiH2fDYC1uSWcf2y-181" value="+ ZoteroCollection(&#xa;        title: String,&#xa;        items: Item[1..n]&#xa;    )" style="text;strokeColor=none;fillColor=none;align=left;verticalAlign=top;spacingLeft=4;spacingRight=4;overflow=hidden;rotatable=0;points=[[0,0.5],[1,0.5]];portConstraint=eastwest;fontColor=default;" parent="NYYMoiH2fDYC1uSWcf2y-178" vertex="1">
          <mxGeometry y="86" width="220" height="64" as="geometry" />
        </mxCell>
        <mxCell id="NYYMoiH2fDYC1uSWcf2y-188" value="&lt;&lt;interface&gt;&gt;&#xa;ICollectionRepository" style="swimlane;fontStyle=0;align=center;verticalAlign=top;childLayout=stackLayout;horizontal=1;startSize=40;horizontalStack=0;resizeParent=1;resizeParentMax=0;resizeLast=0;collapsible=1;marginBottom=0;fontColor=default;" parent="WIyWlLk6GJQsqaUBKTNV-1" vertex="1">
          <mxGeometry x="1150" y="777" width="510" height="178" as="geometry" />
        </mxCell>
        <mxCell id="NYYMoiH2fDYC1uSWcf2y-189" value="" style="line;strokeWidth=1;fillColor=none;align=left;verticalAlign=middle;spacingTop=-1;spacingLeft=3;spacingRight=3;rotatable=0;labelPosition=right;points=[];portConstraint=eastwest;strokeColor=inherit;" parent="NYYMoiH2fDYC1uSWcf2y-188" vertex="1">
          <mxGeometry y="40" width="510" height="8" as="geometry" />
        </mxCell>
        <mxCell id="NYYMoiH2fDYC1uSWcf2y-190" value="+ { suspend } getCollection(title: String): Result&lt;ZoteroCollection&gt;" style="text;strokeColor=none;fillColor=none;align=left;verticalAlign=top;spacingLeft=4;spacingRight=4;overflow=hidden;rotatable=0;points=[[0,0.5],[1,0.5]];portConstraint=eastwest;" parent="NYYMoiH2fDYC1uSWcf2y-188" vertex="1">
          <mxGeometry y="48" width="510" height="26" as="geometry" />
        </mxCell>
        <mxCell id="NYYMoiH2fDYC1uSWcf2y-191" value="+ { suspend } addCollection(title: String): Result&lt;Unit&gt;" style="text;strokeColor=none;fillColor=none;align=left;verticalAlign=top;spacingLeft=4;spacingRight=4;overflow=hidden;rotatable=0;points=[[0,0.5],[1,0.5]];portConstraint=eastwest;" parent="NYYMoiH2fDYC1uSWcf2y-188" vertex="1">
          <mxGeometry y="74" width="510" height="26" as="geometry" />
        </mxCell>
        <mxCell id="NYYMoiH2fDYC1uSWcf2y-193" value="+ { suspend } deleteCollection(title: String): Result&lt;Unit&gt;" style="text;strokeColor=none;fillColor=none;align=left;verticalAlign=top;spacingLeft=4;spacingRight=4;overflow=hidden;rotatable=0;points=[[0,0.5],[1,0.5]];portConstraint=eastwest;" parent="NYYMoiH2fDYC1uSWcf2y-188" vertex="1">
          <mxGeometry y="100" width="510" height="26" as="geometry" />
        </mxCell>
        <mxCell id="NYYMoiH2fDYC1uSWcf2y-194" value="+ { suspend } updateCollection(title: String, newCollection: ZoteroCollection): Result&lt;Unit&gt;" style="text;strokeColor=none;fillColor=none;align=left;verticalAlign=top;spacingLeft=4;spacingRight=4;overflow=hidden;rotatable=0;points=[[0,0.5],[1,0.5]];portConstraint=eastwest;" parent="NYYMoiH2fDYC1uSWcf2y-188" vertex="1">
          <mxGeometry y="126" width="510" height="26" as="geometry" />
        </mxCell>
        <mxCell id="201" value="+ { suspend } getItemByTitle(title: String): Result&lt;ZoteroItem&gt;" style="text;strokeColor=none;fillColor=none;align=left;verticalAlign=top;spacingLeft=4;spacingRight=4;overflow=hidden;rotatable=0;points=[[0,0.5],[1,0.5]];portConstraint=eastwest;" parent="NYYMoiH2fDYC1uSWcf2y-188" vertex="1">
          <mxGeometry y="152" width="510" height="26" as="geometry" />
        </mxCell>
        <mxCell id="NYYMoiH2fDYC1uSWcf2y-195" value="Use" style="endArrow=open;endSize=12;dashed=1;html=1;rounded=0;" parent="WIyWlLk6GJQsqaUBKTNV-1" source="NYYMoiH2fDYC1uSWcf2y-178" target="NYYMoiH2fDYC1uSWcf2y-188" edge="1">
          <mxGeometry width="160" relative="1" as="geometry">
            <mxPoint x="1220" y="953.8235294117646" as="sourcePoint" />
            <mxPoint x="1350.3623188405795" y="848" as="targetPoint" />
          </mxGeometry>
        </mxCell>
        <mxCell id="NYYMoiH2fDYC1uSWcf2y-196" value="LocalCollectionRepository" style="swimlane;fontStyle=0;align=center;verticalAlign=top;childLayout=stackLayout;horizontal=1;startSize=26;horizontalStack=0;resizeParent=1;resizeLast=0;collapsible=1;marginBottom=0;rounded=0;shadow=0;strokeWidth=1;" parent="WIyWlLk6GJQsqaUBKTNV-1" vertex="1">
          <mxGeometry x="1720" y="806" width="160" height="120" as="geometry">
            <mxRectangle x="550" y="140" width="160" height="26" as="alternateBounds" />
          </mxGeometry>
        </mxCell>
        <mxCell id="NYYMoiH2fDYC1uSWcf2y-197" value="- database: Database" style="text;align=left;verticalAlign=top;spacingLeft=4;spacingRight=4;overflow=hidden;rotatable=0;points=[[0,0.5],[1,0.5]];portConstraint=eastwest;" parent="NYYMoiH2fDYC1uSWcf2y-196" vertex="1">
          <mxGeometry y="26" width="160" height="26" as="geometry" />
        </mxCell>
        <mxCell id="NYYMoiH2fDYC1uSWcf2y-198" value="" style="line;html=1;strokeWidth=1;align=left;verticalAlign=middle;spacingTop=-1;spacingLeft=3;spacingRight=3;rotatable=0;labelPosition=right;points=[];portConstraint=eastwest;" parent="NYYMoiH2fDYC1uSWcf2y-196" vertex="1">
          <mxGeometry y="52" width="160" height="8" as="geometry" />
        </mxCell>
        <mxCell id="NYYMoiH2fDYC1uSWcf2y-227" value="+ LocalCollectionRepository(&#xa;        database: Database&#xa;    )" style="text;align=left;verticalAlign=top;spacingLeft=4;spacingRight=4;overflow=hidden;rotatable=0;points=[[0,0.5],[1,0.5]];portConstraint=eastwest;" parent="NYYMoiH2fDYC1uSWcf2y-196" vertex="1">
          <mxGeometry y="60" width="160" height="60" as="geometry" />
        </mxCell>
        <mxCell id="NYYMoiH2fDYC1uSWcf2y-202" value="" style="endArrow=block;dashed=1;endFill=0;endSize=12;html=1;rounded=0;" parent="WIyWlLk6GJQsqaUBKTNV-1" source="NYYMoiH2fDYC1uSWcf2y-196" target="NYYMoiH2fDYC1uSWcf2y-188" edge="1">
          <mxGeometry width="160" relative="1" as="geometry">
            <mxPoint x="1429.6880530973453" y="1262" as="sourcePoint" />
            <mxPoint x="1470.3075221238937" y="1160" as="targetPoint" />
          </mxGeometry>
        </mxCell>
        <mxCell id="NYYMoiH2fDYC1uSWcf2y-204" value="Use" style="endArrow=open;endSize=12;dashed=1;html=1;rounded=0;" parent="WIyWlLk6GJQsqaUBKTNV-1" source="NYYMoiH2fDYC1uSWcf2y-22" target="NYYMoiH2fDYC1uSWcf2y-188" edge="1">
          <mxGeometry width="160" relative="1" as="geometry">
            <mxPoint x="1374.7472527472528" y="328" as="sourcePoint" />
            <mxPoint x="1442.395604395605" y="670" as="targetPoint" />
          </mxGeometry>
        </mxCell>
        <mxCell id="NYYMoiH2fDYC1uSWcf2y-220" value="LoginComponent" style="swimlane;fontStyle=0;align=center;verticalAlign=top;childLayout=stackLayout;horizontal=1;startSize=26;horizontalStack=0;resizeParent=1;resizeParentMax=0;resizeLast=0;collapsible=1;marginBottom=0;fontColor=default;" parent="WIyWlLk6GJQsqaUBKTNV-1" vertex="1">
          <mxGeometry x="840" y="300" width="280" height="164" as="geometry" />
        </mxCell>
        <mxCell id="NYYMoiH2fDYC1uSWcf2y-221" value="+ loginState: LoginState" style="text;strokeColor=none;fillColor=none;align=left;verticalAlign=top;spacingLeft=4;spacingRight=4;overflow=hidden;rotatable=0;points=[[0,0.5],[1,0.5]];portConstraint=eastwest;fontColor=default;" parent="NYYMoiH2fDYC1uSWcf2y-220" vertex="1">
          <mxGeometry y="26" width="280" height="26" as="geometry" />
        </mxCell>
        <mxCell id="NYYMoiH2fDYC1uSWcf2y-226" value="- userRepository: IUserRepository { readOnly }" style="text;strokeColor=none;fillColor=none;align=left;verticalAlign=top;spacingLeft=4;spacingRight=4;overflow=hidden;rotatable=0;points=[[0,0.5],[1,0.5]];portConstraint=eastwest;fontColor=default;" parent="NYYMoiH2fDYC1uSWcf2y-220" vertex="1">
          <mxGeometry y="52" width="280" height="26" as="geometry" />
        </mxCell>
        <mxCell id="NYYMoiH2fDYC1uSWcf2y-222" value="" style="line;strokeWidth=1;fillColor=none;align=left;verticalAlign=middle;spacingTop=-1;spacingLeft=3;spacingRight=3;rotatable=0;labelPosition=right;points=[];portConstraint=eastwest;strokeColor=inherit;fontColor=default;" parent="NYYMoiH2fDYC1uSWcf2y-220" vertex="1">
          <mxGeometry y="78" width="280" height="8" as="geometry" />
        </mxCell>
        <mxCell id="NYYMoiH2fDYC1uSWcf2y-223" value="+ reduce(loginEvent: LoginEvent)" style="text;strokeColor=none;fillColor=none;align=left;verticalAlign=top;spacingLeft=4;spacingRight=4;overflow=hidden;rotatable=0;points=[[0,0.5],[1,0.5]];portConstraint=eastwest;fontColor=default;" parent="NYYMoiH2fDYC1uSWcf2y-220" vertex="1">
          <mxGeometry y="86" width="280" height="26" as="geometry" />
        </mxCell>
        <mxCell id="NYYMoiH2fDYC1uSWcf2y-230" value="+ LoginComponent(&#xa;        userRepository: IUserRepository&#xa;    )" style="text;strokeColor=none;fillColor=none;align=left;verticalAlign=top;spacingLeft=4;spacingRight=4;overflow=hidden;rotatable=0;points=[[0,0.5],[1,0.5]];portConstraint=eastwest;fontColor=default;" parent="NYYMoiH2fDYC1uSWcf2y-220" vertex="1">
          <mxGeometry y="112" width="280" height="52" as="geometry" />
        </mxCell>
        <mxCell id="NYYMoiH2fDYC1uSWcf2y-231" value="&lt;&lt;data class&gt;&gt;&#xa;LoginState" style="swimlane;fontStyle=0;align=center;verticalAlign=top;childLayout=stackLayout;horizontal=1;startSize=40;horizontalStack=0;resizeParent=1;resizeParentMax=0;resizeLast=0;collapsible=1;marginBottom=0;fontColor=default;" parent="WIyWlLk6GJQsqaUBKTNV-1" vertex="1">
          <mxGeometry x="1170" y="418" width="220" height="210" as="geometry" />
        </mxCell>
        <mxCell id="NYYMoiH2fDYC1uSWcf2y-232" value="+ username: String { readOnly }" style="text;strokeColor=none;fillColor=none;align=left;verticalAlign=top;spacingLeft=4;spacingRight=4;overflow=hidden;rotatable=0;points=[[0,0.5],[1,0.5]];portConstraint=eastwest;fontColor=default;" parent="NYYMoiH2fDYC1uSWcf2y-231" vertex="1">
          <mxGeometry y="40" width="220" height="26" as="geometry" />
        </mxCell>
        <mxCell id="NYYMoiH2fDYC1uSWcf2y-235" value="+ password: String { readOnly }" style="text;strokeColor=none;fillColor=none;align=left;verticalAlign=top;spacingLeft=4;spacingRight=4;overflow=hidden;rotatable=0;points=[[0,0.5],[1,0.5]];portConstraint=eastwest;fontColor=default;" parent="NYYMoiH2fDYC1uSWcf2y-231" vertex="1">
          <mxGeometry y="66" width="220" height="26" as="geometry" />
        </mxCell>
        <mxCell id="NYYMoiH2fDYC1uSWcf2y-236" value="+ rememberUser: Boolean { readOnly }" style="text;strokeColor=none;fillColor=none;align=left;verticalAlign=top;spacingLeft=4;spacingRight=4;overflow=hidden;rotatable=0;points=[[0,0.5],[1,0.5]];portConstraint=eastwest;fontColor=default;" parent="NYYMoiH2fDYC1uSWcf2y-231" vertex="1">
          <mxGeometry y="92" width="220" height="26" as="geometry" />
        </mxCell>
        <mxCell id="NYYMoiH2fDYC1uSWcf2y-233" value="" style="line;strokeWidth=1;fillColor=none;align=left;verticalAlign=middle;spacingTop=-1;spacingLeft=3;spacingRight=3;rotatable=0;labelPosition=right;points=[];portConstraint=eastwest;strokeColor=inherit;fontColor=default;" parent="NYYMoiH2fDYC1uSWcf2y-231" vertex="1">
          <mxGeometry y="118" width="220" height="8" as="geometry" />
        </mxCell>
        <mxCell id="NYYMoiH2fDYC1uSWcf2y-234" value="+ LoginState(&#xa;        username: String = &quot;&quot;,&#xa;        password: String = &quot;&quot;,&#xa;        rememberUser: Boolean = false&#xa;)" style="text;strokeColor=none;fillColor=none;align=left;verticalAlign=top;spacingLeft=4;spacingRight=4;overflow=hidden;rotatable=0;points=[[0,0.5],[1,0.5]];portConstraint=eastwest;fontColor=default;" parent="NYYMoiH2fDYC1uSWcf2y-231" vertex="1">
          <mxGeometry y="126" width="220" height="84" as="geometry" />
        </mxCell>
        <mxCell id="NYYMoiH2fDYC1uSWcf2y-237" value="1" style="endArrow=open;html=1;endSize=12;startArrow=diamondThin;startSize=14;startFill=0;edgeStyle=orthogonalEdgeStyle;align=left;verticalAlign=bottom;rounded=0;fontColor=default;" parent="WIyWlLk6GJQsqaUBKTNV-1" source="NYYMoiH2fDYC1uSWcf2y-220" target="NYYMoiH2fDYC1uSWcf2y-2" edge="1">
          <mxGeometry x="-0.8907" y="-15" relative="1" as="geometry">
            <mxPoint x="1360" y="300" as="sourcePoint" />
            <mxPoint x="1520" y="300" as="targetPoint" />
            <mxPoint as="offset" />
          </mxGeometry>
        </mxCell>
        <mxCell id="NYYMoiH2fDYC1uSWcf2y-238" value="1" style="endArrow=open;html=1;endSize=12;startArrow=diamondThin;startSize=14;startFill=1;edgeStyle=orthogonalEdgeStyle;align=left;verticalAlign=bottom;rounded=0;fontColor=default;" parent="WIyWlLk6GJQsqaUBKTNV-1" source="NYYMoiH2fDYC1uSWcf2y-220" target="NYYMoiH2fDYC1uSWcf2y-231" edge="1">
          <mxGeometry x="-1" y="3" relative="1" as="geometry">
            <mxPoint x="1400" y="250" as="sourcePoint" />
            <mxPoint x="1560" y="250" as="targetPoint" />
          </mxGeometry>
        </mxCell>
        <mxCell id="NYYMoiH2fDYC1uSWcf2y-239" value="&lt;&lt;sealed interface&gt;&gt;&#xa;LoginEvent    " style="swimlane;fontStyle=0;align=center;verticalAlign=top;childLayout=stackLayout;horizontal=1;startSize=40;horizontalStack=0;resizeParent=1;resizeParentMax=0;resizeLast=0;collapsible=1;marginBottom=0;fontColor=default;" parent="WIyWlLk6GJQsqaUBKTNV-1" vertex="1">
          <mxGeometry x="1600" y="290" width="160" height="48" as="geometry" />
        </mxCell>
        <mxCell id="NYYMoiH2fDYC1uSWcf2y-241" value="" style="line;strokeWidth=1;fillColor=none;align=left;verticalAlign=middle;spacingTop=-1;spacingLeft=3;spacingRight=3;rotatable=0;labelPosition=right;points=[];portConstraint=eastwest;strokeColor=inherit;fontColor=default;" parent="NYYMoiH2fDYC1uSWcf2y-239" vertex="1">
          <mxGeometry y="40" width="160" height="8" as="geometry" />
        </mxCell>
        <mxCell id="NYYMoiH2fDYC1uSWcf2y-243" value="&lt;&lt;value class&gt;&gt;&#xa;UsernameChangeLoginEvent" style="swimlane;fontStyle=0;align=center;verticalAlign=top;childLayout=stackLayout;horizontal=1;startSize=40;horizontalStack=0;resizeParent=1;resizeParentMax=0;resizeLast=0;collapsible=1;marginBottom=0;fontColor=default;" parent="WIyWlLk6GJQsqaUBKTNV-1" vertex="1">
          <mxGeometry x="1400" y="340" width="190" height="124" as="geometry" />
        </mxCell>
        <mxCell id="NYYMoiH2fDYC1uSWcf2y-244" value="+ username: String { readOnly }" style="text;strokeColor=none;fillColor=none;align=left;verticalAlign=top;spacingLeft=4;spacingRight=4;overflow=hidden;rotatable=0;points=[[0,0.5],[1,0.5]];portConstraint=eastwest;fontColor=default;" parent="NYYMoiH2fDYC1uSWcf2y-243" vertex="1">
          <mxGeometry y="40" width="190" height="26" as="geometry" />
        </mxCell>
        <mxCell id="NYYMoiH2fDYC1uSWcf2y-245" value="" style="line;strokeWidth=1;fillColor=none;align=left;verticalAlign=middle;spacingTop=-1;spacingLeft=3;spacingRight=3;rotatable=0;labelPosition=right;points=[];portConstraint=eastwest;strokeColor=inherit;fontColor=default;" parent="NYYMoiH2fDYC1uSWcf2y-243" vertex="1">
          <mxGeometry y="66" width="190" height="8" as="geometry" />
        </mxCell>
        <mxCell id="NYYMoiH2fDYC1uSWcf2y-246" value="+ UsernameChangeLoginEvent(&#xa;        username: String&#xa;    )" style="text;strokeColor=none;fillColor=none;align=left;verticalAlign=top;spacingLeft=4;spacingRight=4;overflow=hidden;rotatable=0;points=[[0,0.5],[1,0.5]];portConstraint=eastwest;fontColor=default;" parent="NYYMoiH2fDYC1uSWcf2y-243" vertex="1">
          <mxGeometry y="74" width="190" height="50" as="geometry" />
        </mxCell>
        <mxCell id="NYYMoiH2fDYC1uSWcf2y-248" value="Extends" style="endArrow=block;endSize=16;endFill=0;html=1;rounded=0;fontColor=default;" parent="WIyWlLk6GJQsqaUBKTNV-1" source="NYYMoiH2fDYC1uSWcf2y-243" target="NYYMoiH2fDYC1uSWcf2y-239" edge="1">
          <mxGeometry width="160" relative="1" as="geometry">
            <mxPoint x="1550" y="400" as="sourcePoint" />
            <mxPoint x="1710" y="400" as="targetPoint" />
          </mxGeometry>
        </mxCell>
        <mxCell id="NYYMoiH2fDYC1uSWcf2y-249" value="&lt;&lt;value class&gt;&gt;&#xa;PasswordChangeLoginEvent" style="swimlane;fontStyle=0;align=center;verticalAlign=top;childLayout=stackLayout;horizontal=1;startSize=40;horizontalStack=0;resizeParent=1;resizeParentMax=0;resizeLast=0;collapsible=1;marginBottom=0;fontColor=default;" parent="WIyWlLk6GJQsqaUBKTNV-1" vertex="1">
          <mxGeometry x="1800" y="377" width="190" height="124" as="geometry" />
        </mxCell>
        <mxCell id="NYYMoiH2fDYC1uSWcf2y-250" value="+ password: String { readOnly }" style="text;strokeColor=none;fillColor=none;align=left;verticalAlign=top;spacingLeft=4;spacingRight=4;overflow=hidden;rotatable=0;points=[[0,0.5],[1,0.5]];portConstraint=eastwest;fontColor=default;" parent="NYYMoiH2fDYC1uSWcf2y-249" vertex="1">
          <mxGeometry y="40" width="190" height="26" as="geometry" />
        </mxCell>
        <mxCell id="NYYMoiH2fDYC1uSWcf2y-251" value="" style="line;strokeWidth=1;fillColor=none;align=left;verticalAlign=middle;spacingTop=-1;spacingLeft=3;spacingRight=3;rotatable=0;labelPosition=right;points=[];portConstraint=eastwest;strokeColor=inherit;fontColor=default;" parent="NYYMoiH2fDYC1uSWcf2y-249" vertex="1">
          <mxGeometry y="66" width="190" height="8" as="geometry" />
        </mxCell>
        <mxCell id="NYYMoiH2fDYC1uSWcf2y-252" value="+ PasswordChangeLoginEvent(&#xa;        password: String&#xa;    )" style="text;strokeColor=none;fillColor=none;align=left;verticalAlign=top;spacingLeft=4;spacingRight=4;overflow=hidden;rotatable=0;points=[[0,0.5],[1,0.5]];portConstraint=eastwest;fontColor=default;" parent="NYYMoiH2fDYC1uSWcf2y-249" vertex="1">
          <mxGeometry y="74" width="190" height="50" as="geometry" />
        </mxCell>
        <mxCell id="NYYMoiH2fDYC1uSWcf2y-253" value="Extends" style="endArrow=block;endSize=16;endFill=0;html=1;rounded=0;fontColor=default;" parent="WIyWlLk6GJQsqaUBKTNV-1" source="NYYMoiH2fDYC1uSWcf2y-249" target="NYYMoiH2fDYC1uSWcf2y-239" edge="1">
          <mxGeometry width="160" relative="1" as="geometry">
            <mxPoint x="1644.2857142857142" y="479.9999999999999" as="sourcePoint" />
            <mxPoint x="1702.8571428571427" y="398" as="targetPoint" />
          </mxGeometry>
        </mxCell>
        <mxCell id="NYYMoiH2fDYC1uSWcf2y-254" value="&lt;&lt;value class&gt;&gt;&#xa;RememberUserTogledLoginEvent" style="swimlane;fontStyle=0;align=center;verticalAlign=top;childLayout=stackLayout;horizontal=1;startSize=40;horizontalStack=0;resizeParent=1;resizeParentMax=0;resizeLast=0;collapsible=1;marginBottom=0;fontColor=default;" parent="WIyWlLk6GJQsqaUBKTNV-1" vertex="1">
          <mxGeometry x="1400" y="490" width="220" height="124" as="geometry" />
        </mxCell>
        <mxCell id="NYYMoiH2fDYC1uSWcf2y-255" value="+ rememberUser: Boolean { readOnly }" style="text;strokeColor=none;fillColor=none;align=left;verticalAlign=top;spacingLeft=4;spacingRight=4;overflow=hidden;rotatable=0;points=[[0,0.5],[1,0.5]];portConstraint=eastwest;fontColor=default;" parent="NYYMoiH2fDYC1uSWcf2y-254" vertex="1">
          <mxGeometry y="40" width="220" height="26" as="geometry" />
        </mxCell>
        <mxCell id="NYYMoiH2fDYC1uSWcf2y-256" value="" style="line;strokeWidth=1;fillColor=none;align=left;verticalAlign=middle;spacingTop=-1;spacingLeft=3;spacingRight=3;rotatable=0;labelPosition=right;points=[];portConstraint=eastwest;strokeColor=inherit;fontColor=default;" parent="NYYMoiH2fDYC1uSWcf2y-254" vertex="1">
          <mxGeometry y="66" width="220" height="8" as="geometry" />
        </mxCell>
        <mxCell id="NYYMoiH2fDYC1uSWcf2y-257" value="+ RememberUserTogledLoginEvent(&#xa;        rememberUser: Boolean&#xa;    )" style="text;strokeColor=none;fillColor=none;align=left;verticalAlign=top;spacingLeft=4;spacingRight=4;overflow=hidden;rotatable=0;points=[[0,0.5],[1,0.5]];portConstraint=eastwest;fontColor=default;" parent="NYYMoiH2fDYC1uSWcf2y-254" vertex="1">
          <mxGeometry y="74" width="220" height="50" as="geometry" />
        </mxCell>
        <mxCell id="NYYMoiH2fDYC1uSWcf2y-258" value="Extends" style="endArrow=block;endSize=16;endFill=0;html=1;rounded=0;fontColor=default;" parent="WIyWlLk6GJQsqaUBKTNV-1" source="NYYMoiH2fDYC1uSWcf2y-254" target="NYYMoiH2fDYC1uSWcf2y-239" edge="1">
          <mxGeometry width="160" relative="1" as="geometry">
            <mxPoint x="1644.2857142857142" y="479.9999999999999" as="sourcePoint" />
            <mxPoint x="1702.8571428571427" y="398" as="targetPoint" />
            <Array as="points">
              <mxPoint x="1640" y="460" />
            </Array>
          </mxGeometry>
        </mxCell>
        <mxCell id="NYYMoiH2fDYC1uSWcf2y-259" value="&lt;&lt;singletone&gt;&gt; &#xa;LoginButtonClickLoginEvent" style="swimlane;fontStyle=0;align=center;verticalAlign=top;childLayout=stackLayout;horizontal=1;startSize=40;horizontalStack=0;resizeParent=1;resizeParentMax=0;resizeLast=0;collapsible=1;marginBottom=0;fontColor=default;" parent="WIyWlLk6GJQsqaUBKTNV-1" vertex="1">
          <mxGeometry x="1730" y="548" width="220" height="74" as="geometry" />
        </mxCell>
        <mxCell id="NYYMoiH2fDYC1uSWcf2y-261" value="" style="line;strokeWidth=1;fillColor=none;align=left;verticalAlign=middle;spacingTop=-1;spacingLeft=3;spacingRight=3;rotatable=0;labelPosition=right;points=[];portConstraint=eastwest;strokeColor=inherit;fontColor=default;" parent="NYYMoiH2fDYC1uSWcf2y-259" vertex="1">
          <mxGeometry y="40" width="220" height="8" as="geometry" />
        </mxCell>
        <mxCell id="NYYMoiH2fDYC1uSWcf2y-262" value="+ LoginButtonClickLoginEvent()" style="text;strokeColor=none;fillColor=none;align=left;verticalAlign=top;spacingLeft=4;spacingRight=4;overflow=hidden;rotatable=0;points=[[0,0.5],[1,0.5]];portConstraint=eastwest;fontColor=default;" parent="NYYMoiH2fDYC1uSWcf2y-259" vertex="1">
          <mxGeometry y="48" width="220" height="26" as="geometry" />
        </mxCell>
        <mxCell id="NYYMoiH2fDYC1uSWcf2y-263" value="Extends" style="endArrow=block;endSize=16;endFill=0;html=1;rounded=0;fontColor=default;" parent="WIyWlLk6GJQsqaUBKTNV-1" source="NYYMoiH2fDYC1uSWcf2y-259" target="NYYMoiH2fDYC1uSWcf2y-239" edge="1">
          <mxGeometry width="160" relative="1" as="geometry">
            <mxPoint x="1628.965517241379" y="638" as="sourcePoint" />
            <mxPoint x="1711.7241379310344" y="398" as="targetPoint" />
          </mxGeometry>
        </mxCell>
        <mxCell id="NYYMoiH2fDYC1uSWcf2y-264" value="MainComponent" style="swimlane;fontStyle=0;align=center;verticalAlign=top;childLayout=stackLayout;horizontal=1;startSize=26;horizontalStack=0;resizeParent=1;resizeParentMax=0;resizeLast=0;collapsible=1;marginBottom=0;fontColor=default;" parent="WIyWlLk6GJQsqaUBKTNV-1" vertex="1">
          <mxGeometry x="1220" y="1120" width="320" height="240" as="geometry" />
        </mxCell>
        <mxCell id="NYYMoiH2fDYC1uSWcf2y-265" value="+ mainState: MainState" style="text;strokeColor=none;fillColor=none;align=left;verticalAlign=top;spacingLeft=4;spacingRight=4;overflow=hidden;rotatable=0;points=[[0,0.5],[1,0.5]];portConstraint=eastwest;fontColor=default;" parent="NYYMoiH2fDYC1uSWcf2y-264" vertex="1">
          <mxGeometry y="26" width="320" height="26" as="geometry" />
        </mxCell>
        <mxCell id="NYYMoiH2fDYC1uSWcf2y-267" value="- collectionRepository: ICollectionRepository{ readOnly }" style="text;strokeColor=none;fillColor=none;align=left;verticalAlign=top;spacingLeft=4;spacingRight=4;overflow=hidden;rotatable=0;points=[[0,0.5],[1,0.5]];portConstraint=eastwest;fontColor=default;" parent="NYYMoiH2fDYC1uSWcf2y-264" vertex="1">
          <mxGeometry y="52" width="320" height="26" as="geometry" />
        </mxCell>
        <mxCell id="NYYMoiH2fDYC1uSWcf2y-271" value="- itemRepository: IItemRepository { readOnly }&#xa;" style="text;strokeColor=none;fillColor=none;align=left;verticalAlign=top;spacingLeft=4;spacingRight=4;overflow=hidden;rotatable=0;points=[[0,0.5],[1,0.5]];portConstraint=eastwest;fontColor=default;" parent="NYYMoiH2fDYC1uSWcf2y-264" vertex="1">
          <mxGeometry y="78" width="320" height="26" as="geometry" />
        </mxCell>
        <mxCell id="NYYMoiH2fDYC1uSWcf2y-281" value="- syncRepository: ISyncRepository { readOnly }" style="text;strokeColor=none;fillColor=none;align=left;verticalAlign=top;spacingLeft=4;spacingRight=4;overflow=hidden;rotatable=0;points=[[0,0.5],[1,0.5]];portConstraint=eastwest;fontColor=default;" parent="NYYMoiH2fDYC1uSWcf2y-264" vertex="1">
          <mxGeometry y="104" width="320" height="26" as="geometry" />
        </mxCell>
        <mxCell id="NYYMoiH2fDYC1uSWcf2y-268" value="" style="line;strokeWidth=1;fillColor=none;align=left;verticalAlign=middle;spacingTop=-1;spacingLeft=3;spacingRight=3;rotatable=0;labelPosition=right;points=[];portConstraint=eastwest;strokeColor=inherit;fontColor=default;" parent="NYYMoiH2fDYC1uSWcf2y-264" vertex="1">
          <mxGeometry y="130" width="320" height="8" as="geometry" />
        </mxCell>
        <mxCell id="NYYMoiH2fDYC1uSWcf2y-269" value="+ reduce(mainEvent: MainEvent)" style="text;strokeColor=none;fillColor=none;align=left;verticalAlign=top;spacingLeft=4;spacingRight=4;overflow=hidden;rotatable=0;points=[[0,0.5],[1,0.5]];portConstraint=eastwest;fontColor=default;" parent="NYYMoiH2fDYC1uSWcf2y-264" vertex="1">
          <mxGeometry y="138" width="320" height="26" as="geometry" />
        </mxCell>
        <mxCell id="NYYMoiH2fDYC1uSWcf2y-270" value="+ LoginComponent(&#xa;        collectionRepository: ICollectionRepository,&#xa;        itemRepository: IItemRepository,&#xa;        syncRepository: ISyncRepository&#xa;    )" style="text;strokeColor=none;fillColor=none;align=left;verticalAlign=top;spacingLeft=4;spacingRight=4;overflow=hidden;rotatable=0;points=[[0,0.5],[1,0.5]];portConstraint=eastwest;fontColor=default;" parent="NYYMoiH2fDYC1uSWcf2y-264" vertex="1">
          <mxGeometry y="164" width="320" height="76" as="geometry" />
        </mxCell>
        <mxCell id="NYYMoiH2fDYC1uSWcf2y-273" value="1" style="endArrow=open;html=1;endSize=12;startArrow=diamondThin;startSize=14;startFill=0;edgeStyle=orthogonalEdgeStyle;align=left;verticalAlign=bottom;rounded=0;fontColor=default;" parent="WIyWlLk6GJQsqaUBKTNV-1" source="NYYMoiH2fDYC1uSWcf2y-264" target="NYYMoiH2fDYC1uSWcf2y-141" edge="1">
          <mxGeometry x="-0.8907" y="-15" relative="1" as="geometry">
            <mxPoint x="1160" y="355" as="sourcePoint" />
            <mxPoint x="1070" y="268" as="targetPoint" />
            <mxPoint as="offset" />
            <Array as="points">
              <mxPoint x="1020" y="1253" />
            </Array>
          </mxGeometry>
        </mxCell>
        <mxCell id="NYYMoiH2fDYC1uSWcf2y-274" value="1" style="endArrow=open;html=1;endSize=12;startArrow=diamondThin;startSize=14;startFill=0;edgeStyle=orthogonalEdgeStyle;align=left;verticalAlign=bottom;rounded=0;fontColor=default;" parent="WIyWlLk6GJQsqaUBKTNV-1" source="NYYMoiH2fDYC1uSWcf2y-264" target="NYYMoiH2fDYC1uSWcf2y-188" edge="1">
          <mxGeometry x="-0.8907" y="-15" relative="1" as="geometry">
            <mxPoint x="1270" y="1240.0000000000005" as="sourcePoint" />
            <mxPoint x="915" y="1037.9999999999998" as="targetPoint" />
            <mxPoint as="offset" />
            <Array as="points">
              <mxPoint x="1405" y="1070" />
              <mxPoint x="1405" y="1070" />
            </Array>
          </mxGeometry>
        </mxCell>
        <mxCell id="NYYMoiH2fDYC1uSWcf2y-275" value="MainState" style="swimlane;fontStyle=0;align=center;verticalAlign=top;childLayout=stackLayout;horizontal=1;startSize=26;horizontalStack=0;resizeParent=1;resizeParentMax=0;resizeLast=0;collapsible=1;marginBottom=0;fontColor=default;" parent="WIyWlLk6GJQsqaUBKTNV-1" vertex="1">
          <mxGeometry x="1600" y="1120" width="210" height="86" as="geometry" />
        </mxCell>
        <mxCell id="NYYMoiH2fDYC1uSWcf2y-276" value="+ collections: List&lt;ZoteroCollection&gt;" style="text;strokeColor=none;fillColor=none;align=left;verticalAlign=top;spacingLeft=4;spacingRight=4;overflow=hidden;rotatable=0;points=[[0,0.5],[1,0.5]];portConstraint=eastwest;fontColor=default;" parent="NYYMoiH2fDYC1uSWcf2y-275" vertex="1">
          <mxGeometry y="26" width="210" height="26" as="geometry" />
        </mxCell>
        <mxCell id="NYYMoiH2fDYC1uSWcf2y-279" value="" style="line;strokeWidth=1;fillColor=none;align=left;verticalAlign=middle;spacingTop=-1;spacingLeft=3;spacingRight=3;rotatable=0;labelPosition=right;points=[];portConstraint=eastwest;strokeColor=inherit;fontColor=default;" parent="NYYMoiH2fDYC1uSWcf2y-275" vertex="1">
          <mxGeometry y="52" width="210" height="8" as="geometry" />
        </mxCell>
        <mxCell id="NYYMoiH2fDYC1uSWcf2y-280" value="+ MainState()" style="text;strokeColor=none;fillColor=none;align=left;verticalAlign=top;spacingLeft=4;spacingRight=4;overflow=hidden;rotatable=0;points=[[0,0.5],[1,0.5]];portConstraint=eastwest;fontColor=default;" parent="NYYMoiH2fDYC1uSWcf2y-275" vertex="1">
          <mxGeometry y="60" width="210" height="26" as="geometry" />
        </mxCell>
        <mxCell id="NYYMoiH2fDYC1uSWcf2y-282" value="&lt;&lt;interface&gt;&gt;&#xa;ISyncRepository" style="swimlane;fontStyle=0;align=center;verticalAlign=top;childLayout=stackLayout;horizontal=1;startSize=40;horizontalStack=0;resizeParent=1;resizeParentMax=0;resizeLast=0;collapsible=1;marginBottom=0;fontColor=default;" parent="WIyWlLk6GJQsqaUBKTNV-1" vertex="1">
          <mxGeometry x="1530" y="1450" width="260" height="74" as="geometry" />
        </mxCell>
        <mxCell id="NYYMoiH2fDYC1uSWcf2y-283" value="" style="line;strokeWidth=1;fillColor=none;align=left;verticalAlign=middle;spacingTop=-1;spacingLeft=3;spacingRight=3;rotatable=0;labelPosition=right;points=[];portConstraint=eastwest;strokeColor=inherit;" parent="NYYMoiH2fDYC1uSWcf2y-282" vertex="1">
          <mxGeometry y="40" width="260" height="8" as="geometry" />
        </mxCell>
        <mxCell id="NYYMoiH2fDYC1uSWcf2y-288" value="+ { suspend } syncLibrary(): Result&lt;Nothing&gt;" style="text;strokeColor=none;fillColor=none;align=left;verticalAlign=top;spacingLeft=4;spacingRight=4;overflow=hidden;rotatable=0;points=[[0,0.5],[1,0.5]];portConstraint=eastwest;" parent="NYYMoiH2fDYC1uSWcf2y-282" vertex="1">
          <mxGeometry y="48" width="260" height="26" as="geometry" />
        </mxCell>
        <mxCell id="NYYMoiH2fDYC1uSWcf2y-289" value="SyncRepository" style="swimlane;fontStyle=0;align=center;verticalAlign=top;childLayout=stackLayout;horizontal=1;startSize=26;horizontalStack=0;resizeParent=1;resizeLast=0;collapsible=1;marginBottom=0;rounded=0;shadow=0;strokeWidth=1;" parent="WIyWlLk6GJQsqaUBKTNV-1" vertex="1">
          <mxGeometry x="1650" y="1240" width="160" height="160" as="geometry">
            <mxRectangle x="550" y="140" width="160" height="26" as="alternateBounds" />
          </mxGeometry>
        </mxCell>
        <mxCell id="NYYMoiH2fDYC1uSWcf2y-290" value="- database: Database" style="text;align=left;verticalAlign=top;spacingLeft=4;spacingRight=4;overflow=hidden;rotatable=0;points=[[0,0.5],[1,0.5]];portConstraint=eastwest;" parent="NYYMoiH2fDYC1uSWcf2y-289" vertex="1">
          <mxGeometry y="26" width="160" height="26" as="geometry" />
        </mxCell>
        <mxCell id="NYYMoiH2fDYC1uSWcf2y-293" value="- client: HttpClient" style="text;align=left;verticalAlign=top;spacingLeft=4;spacingRight=4;overflow=hidden;rotatable=0;points=[[0,0.5],[1,0.5]];portConstraint=eastwest;" parent="NYYMoiH2fDYC1uSWcf2y-289" vertex="1">
          <mxGeometry y="52" width="160" height="26" as="geometry" />
        </mxCell>
        <mxCell id="NYYMoiH2fDYC1uSWcf2y-291" value="" style="line;html=1;strokeWidth=1;align=left;verticalAlign=middle;spacingTop=-1;spacingLeft=3;spacingRight=3;rotatable=0;labelPosition=right;points=[];portConstraint=eastwest;" parent="NYYMoiH2fDYC1uSWcf2y-289" vertex="1">
          <mxGeometry y="78" width="160" height="10" as="geometry" />
        </mxCell>
        <mxCell id="NYYMoiH2fDYC1uSWcf2y-292" value="+ SyncRepository(&#xa;        database: Database,&#xa;        client: HttpClient&#xa;    )" style="text;align=left;verticalAlign=top;spacingLeft=4;spacingRight=4;overflow=hidden;rotatable=0;points=[[0,0.5],[1,0.5]];portConstraint=eastwest;" parent="NYYMoiH2fDYC1uSWcf2y-289" vertex="1">
          <mxGeometry y="88" width="160" height="72" as="geometry" />
        </mxCell>
        <mxCell id="NYYMoiH2fDYC1uSWcf2y-294" value="" style="endArrow=block;dashed=1;endFill=0;endSize=12;html=1;rounded=0;" parent="WIyWlLk6GJQsqaUBKTNV-1" source="NYYMoiH2fDYC1uSWcf2y-289" target="NYYMoiH2fDYC1uSWcf2y-282" edge="1">
          <mxGeometry width="160" relative="1" as="geometry">
            <mxPoint x="980.3125" y="1070" as="sourcePoint" />
            <mxPoint x="963.0397727272727" y="1038" as="targetPoint" />
          </mxGeometry>
        </mxCell>
        <mxCell id="NYYMoiH2fDYC1uSWcf2y-295" value="1" style="endArrow=open;html=1;endSize=12;startArrow=diamondThin;startSize=14;startFill=0;edgeStyle=orthogonalEdgeStyle;align=left;verticalAlign=bottom;rounded=0;fontColor=default;" parent="WIyWlLk6GJQsqaUBKTNV-1" source="NYYMoiH2fDYC1uSWcf2y-270" target="NYYMoiH2fDYC1uSWcf2y-282" edge="1">
          <mxGeometry x="-0.8907" y="-15" relative="1" as="geometry">
            <mxPoint x="1230" y="1263.0000000000002" as="sourcePoint" />
            <mxPoint x="915" y="1038" as="targetPoint" />
            <mxPoint as="offset" />
          </mxGeometry>
        </mxCell>
        <mxCell id="NYYMoiH2fDYC1uSWcf2y-296" value="1" style="endArrow=open;html=1;endSize=12;startArrow=diamondThin;startSize=14;startFill=1;edgeStyle=orthogonalEdgeStyle;align=left;verticalAlign=bottom;rounded=0;fontColor=default;" parent="WIyWlLk6GJQsqaUBKTNV-1" source="NYYMoiH2fDYC1uSWcf2y-264" target="NYYMoiH2fDYC1uSWcf2y-275" edge="1">
          <mxGeometry x="-1" y="3" relative="1" as="geometry">
            <mxPoint x="1620" y="1340" as="sourcePoint" />
            <mxPoint x="1820" y="1359.0526315789475" as="targetPoint" />
          </mxGeometry>
        </mxCell>
        <mxCell id="NYYMoiH2fDYC1uSWcf2y-297" value="&lt;&lt;interface class&gt;&gt;&#xa;MainEvent    " style="swimlane;fontStyle=0;align=center;verticalAlign=top;childLayout=stackLayout;horizontal=1;startSize=40;horizontalStack=0;resizeParent=1;resizeParentMax=0;resizeLast=0;collapsible=1;marginBottom=0;fontColor=default;" parent="WIyWlLk6GJQsqaUBKTNV-1" vertex="1">
          <mxGeometry x="1025" y="1463" width="160" height="48" as="geometry" />
        </mxCell>
        <mxCell id="NYYMoiH2fDYC1uSWcf2y-298" value="" style="line;strokeWidth=1;fillColor=none;align=left;verticalAlign=middle;spacingTop=-1;spacingLeft=3;spacingRight=3;rotatable=0;labelPosition=right;points=[];portConstraint=eastwest;strokeColor=inherit;fontColor=default;" parent="NYYMoiH2fDYC1uSWcf2y-297" vertex="1">
          <mxGeometry y="40" width="160" height="8" as="geometry" />
        </mxCell>
        <mxCell id="NYYMoiH2fDYC1uSWcf2y-299" value="&lt;&lt;singletone&gt;&gt;&#xa; SyncLibraryMainEvent" style="swimlane;fontStyle=0;align=center;verticalAlign=top;childLayout=stackLayout;horizontal=1;startSize=40;horizontalStack=0;resizeParent=1;resizeParentMax=0;resizeLast=0;collapsible=1;marginBottom=0;fontColor=default;" parent="WIyWlLk6GJQsqaUBKTNV-1" vertex="1">
          <mxGeometry x="719" y="1440" width="220" height="74" as="geometry" />
        </mxCell>
        <mxCell id="NYYMoiH2fDYC1uSWcf2y-301" value="" style="line;strokeWidth=1;fillColor=none;align=left;verticalAlign=middle;spacingTop=-1;spacingLeft=3;spacingRight=3;rotatable=0;labelPosition=right;points=[];portConstraint=eastwest;strokeColor=inherit;fontColor=default;" parent="NYYMoiH2fDYC1uSWcf2y-299" vertex="1">
          <mxGeometry y="40" width="220" height="8" as="geometry" />
        </mxCell>
        <mxCell id="NYYMoiH2fDYC1uSWcf2y-302" value="+ SyncLibraryMainEvent()" style="text;strokeColor=none;fillColor=none;align=left;verticalAlign=top;spacingLeft=4;spacingRight=4;overflow=hidden;rotatable=0;points=[[0,0.5],[1,0.5]];portConstraint=eastwest;fontColor=default;" parent="NYYMoiH2fDYC1uSWcf2y-299" vertex="1">
          <mxGeometry y="48" width="220" height="26" as="geometry" />
        </mxCell>
        <mxCell id="NYYMoiH2fDYC1uSWcf2y-304" value="&lt;&lt;value class&gt;&gt;&#xa;AddCollectionMainEvent" style="swimlane;fontStyle=0;align=center;verticalAlign=top;childLayout=stackLayout;horizontal=1;startSize=42;horizontalStack=0;resizeParent=1;resizeParentMax=0;resizeLast=0;collapsible=1;marginBottom=0;fontColor=default;" parent="WIyWlLk6GJQsqaUBKTNV-1" vertex="1">
          <mxGeometry x="719" y="1528" width="220" height="102" as="geometry" />
        </mxCell>
        <mxCell id="NYYMoiH2fDYC1uSWcf2y-307" value="+ title: String { readOnly }" style="text;strokeColor=none;fillColor=none;align=left;verticalAlign=top;spacingLeft=4;spacingRight=4;overflow=hidden;rotatable=0;points=[[0,0.5],[1,0.5]];portConstraint=eastwest;fontColor=default;" parent="NYYMoiH2fDYC1uSWcf2y-304" vertex="1">
          <mxGeometry y="42" width="220" height="26" as="geometry" />
        </mxCell>
        <mxCell id="NYYMoiH2fDYC1uSWcf2y-305" value="" style="line;strokeWidth=1;fillColor=none;align=left;verticalAlign=middle;spacingTop=-1;spacingLeft=3;spacingRight=3;rotatable=0;labelPosition=right;points=[];portConstraint=eastwest;strokeColor=inherit;fontColor=default;" parent="NYYMoiH2fDYC1uSWcf2y-304" vertex="1">
          <mxGeometry y="68" width="220" height="8" as="geometry" />
        </mxCell>
        <mxCell id="NYYMoiH2fDYC1uSWcf2y-306" value="+ AddCollectionMainEvent(title: String)" style="text;strokeColor=none;fillColor=none;align=left;verticalAlign=top;spacingLeft=4;spacingRight=4;overflow=hidden;rotatable=0;points=[[0,0.5],[1,0.5]];portConstraint=eastwest;fontColor=default;" parent="NYYMoiH2fDYC1uSWcf2y-304" vertex="1">
          <mxGeometry y="76" width="220" height="26" as="geometry" />
        </mxCell>
        <mxCell id="NYYMoiH2fDYC1uSWcf2y-310" value="&lt;&lt;data class&gt;&gt;&#xa;RenameCollectionMainEvent" style="swimlane;fontStyle=0;align=center;verticalAlign=top;childLayout=stackLayout;horizontal=1;startSize=40;horizontalStack=0;resizeParent=1;resizeParentMax=0;resizeLast=0;collapsible=1;marginBottom=0;fontColor=default;" parent="WIyWlLk6GJQsqaUBKTNV-1" vertex="1">
          <mxGeometry x="719" y="1640" width="190" height="164" as="geometry" />
        </mxCell>
        <mxCell id="NYYMoiH2fDYC1uSWcf2y-311" value="+ title: String { readOnly }" style="text;strokeColor=none;fillColor=none;align=left;verticalAlign=top;spacingLeft=4;spacingRight=4;overflow=hidden;rotatable=0;points=[[0,0.5],[1,0.5]];portConstraint=eastwest;fontColor=default;" parent="NYYMoiH2fDYC1uSWcf2y-310" vertex="1">
          <mxGeometry y="40" width="190" height="26" as="geometry" />
        </mxCell>
        <mxCell id="NYYMoiH2fDYC1uSWcf2y-314" value="+ newTitle: String { readOnly }" style="text;strokeColor=none;fillColor=none;align=left;verticalAlign=top;spacingLeft=4;spacingRight=4;overflow=hidden;rotatable=0;points=[[0,0.5],[1,0.5]];portConstraint=eastwest;fontColor=default;" parent="NYYMoiH2fDYC1uSWcf2y-310" vertex="1">
          <mxGeometry y="66" width="190" height="26" as="geometry" />
        </mxCell>
        <mxCell id="NYYMoiH2fDYC1uSWcf2y-312" value="" style="line;strokeWidth=1;fillColor=none;align=left;verticalAlign=middle;spacingTop=-1;spacingLeft=3;spacingRight=3;rotatable=0;labelPosition=right;points=[];portConstraint=eastwest;strokeColor=inherit;fontColor=default;" parent="NYYMoiH2fDYC1uSWcf2y-310" vertex="1">
          <mxGeometry y="92" width="190" height="8" as="geometry" />
        </mxCell>
        <mxCell id="NYYMoiH2fDYC1uSWcf2y-313" value="+ AddCollectionMainEvent(&#xa;        title: String,&#xa;        newTitle: String&#xa;    )" style="text;strokeColor=none;fillColor=none;align=left;verticalAlign=top;spacingLeft=4;spacingRight=4;overflow=hidden;rotatable=0;points=[[0,0.5],[1,0.5]];portConstraint=eastwest;fontColor=default;" parent="NYYMoiH2fDYC1uSWcf2y-310" vertex="1">
          <mxGeometry y="100" width="190" height="64" as="geometry" />
        </mxCell>
        <mxCell id="NYYMoiH2fDYC1uSWcf2y-316" value="&lt;&lt;value class&gt;&gt;&#xa;DeleteCollectionMainEvent" style="swimlane;fontStyle=0;align=center;verticalAlign=top;childLayout=stackLayout;horizontal=1;startSize=40;horizontalStack=0;resizeParent=1;resizeParentMax=0;resizeLast=0;collapsible=1;marginBottom=0;fontColor=default;" parent="WIyWlLk6GJQsqaUBKTNV-1" vertex="1">
          <mxGeometry x="730" y="1810" width="190" height="124" as="geometry" />
        </mxCell>
        <mxCell id="NYYMoiH2fDYC1uSWcf2y-317" value="+ title: String { readOnly }" style="text;strokeColor=none;fillColor=none;align=left;verticalAlign=top;spacingLeft=4;spacingRight=4;overflow=hidden;rotatable=0;points=[[0,0.5],[1,0.5]];portConstraint=eastwest;fontColor=default;" parent="NYYMoiH2fDYC1uSWcf2y-316" vertex="1">
          <mxGeometry y="40" width="190" height="26" as="geometry" />
        </mxCell>
        <mxCell id="NYYMoiH2fDYC1uSWcf2y-319" value="" style="line;strokeWidth=1;fillColor=none;align=left;verticalAlign=middle;spacingTop=-1;spacingLeft=3;spacingRight=3;rotatable=0;labelPosition=right;points=[];portConstraint=eastwest;strokeColor=inherit;fontColor=default;" parent="NYYMoiH2fDYC1uSWcf2y-316" vertex="1">
          <mxGeometry y="66" width="190" height="8" as="geometry" />
        </mxCell>
        <mxCell id="NYYMoiH2fDYC1uSWcf2y-320" value="+ AddCollectionMainEvent(&#xa;        title: String&#xa;    )" style="text;strokeColor=none;fillColor=none;align=left;verticalAlign=top;spacingLeft=4;spacingRight=4;overflow=hidden;rotatable=0;points=[[0,0.5],[1,0.5]];portConstraint=eastwest;fontColor=default;" parent="NYYMoiH2fDYC1uSWcf2y-316" vertex="1">
          <mxGeometry y="74" width="190" height="50" as="geometry" />
        </mxCell>
        <mxCell id="NYYMoiH2fDYC1uSWcf2y-322" value="&lt;&lt;data class&gt;&gt;&#xa;AddItemMainEvent" style="swimlane;fontStyle=0;align=center;verticalAlign=top;childLayout=stackLayout;horizontal=1;startSize=40;horizontalStack=0;resizeParent=1;resizeParentMax=0;resizeLast=0;collapsible=1;marginBottom=0;fontColor=default;" parent="WIyWlLk6GJQsqaUBKTNV-1" vertex="1">
          <mxGeometry x="1300" y="1660" width="220" height="164" as="geometry" />
        </mxCell>
        <mxCell id="NYYMoiH2fDYC1uSWcf2y-323" value="+ collectionTitle: String { readOnly }" style="text;strokeColor=none;fillColor=none;align=left;verticalAlign=top;spacingLeft=4;spacingRight=4;overflow=hidden;rotatable=0;points=[[0,0.5],[1,0.5]];portConstraint=eastwest;fontColor=default;" parent="NYYMoiH2fDYC1uSWcf2y-322" vertex="1">
          <mxGeometry y="40" width="220" height="26" as="geometry" />
        </mxCell>
        <mxCell id="NYYMoiH2fDYC1uSWcf2y-326" value="+ item: ZoteroItem { readOnly }" style="text;strokeColor=none;fillColor=none;align=left;verticalAlign=top;spacingLeft=4;spacingRight=4;overflow=hidden;rotatable=0;points=[[0,0.5],[1,0.5]];portConstraint=eastwest;fontColor=default;" parent="NYYMoiH2fDYC1uSWcf2y-322" vertex="1">
          <mxGeometry y="66" width="220" height="26" as="geometry" />
        </mxCell>
        <mxCell id="NYYMoiH2fDYC1uSWcf2y-324" value="" style="line;strokeWidth=1;fillColor=none;align=left;verticalAlign=middle;spacingTop=-1;spacingLeft=3;spacingRight=3;rotatable=0;labelPosition=right;points=[];portConstraint=eastwest;strokeColor=inherit;fontColor=default;" parent="NYYMoiH2fDYC1uSWcf2y-322" vertex="1">
          <mxGeometry y="92" width="220" height="8" as="geometry" />
        </mxCell>
        <mxCell id="NYYMoiH2fDYC1uSWcf2y-325" value="+ AddItemMainEvent(&#xa;        title: String,&#xa;        item: ZoteroItem&#xa;    )" style="text;strokeColor=none;fillColor=none;align=left;verticalAlign=top;spacingLeft=4;spacingRight=4;overflow=hidden;rotatable=0;points=[[0,0.5],[1,0.5]];portConstraint=eastwest;fontColor=default;" parent="NYYMoiH2fDYC1uSWcf2y-322" vertex="1">
          <mxGeometry y="100" width="220" height="64" as="geometry" />
        </mxCell>
        <mxCell id="NYYMoiH2fDYC1uSWcf2y-328" value="UpdateItemMainEvent&#xa;&lt;&lt;data class&gt;&gt;" style="swimlane;fontStyle=0;align=center;verticalAlign=top;childLayout=stackLayout;horizontal=1;startSize=40;horizontalStack=0;resizeParent=1;resizeParentMax=0;resizeLast=0;collapsible=1;marginBottom=0;fontColor=default;" parent="WIyWlLk6GJQsqaUBKTNV-1" vertex="1">
          <mxGeometry x="1290" y="1426" width="220" height="204" as="geometry" />
        </mxCell>
        <mxCell id="NYYMoiH2fDYC1uSWcf2y-329" value="+ collectionTitle: String { readOnly }" style="text;strokeColor=none;fillColor=none;align=left;verticalAlign=top;spacingLeft=4;spacingRight=4;overflow=hidden;rotatable=0;points=[[0,0.5],[1,0.5]];portConstraint=eastwest;fontColor=default;" parent="NYYMoiH2fDYC1uSWcf2y-328" vertex="1">
          <mxGeometry y="40" width="220" height="26" as="geometry" />
        </mxCell>
        <mxCell id="NYYMoiH2fDYC1uSWcf2y-330" value="+ item: ZoteroItem { readOnly }" style="text;strokeColor=none;fillColor=none;align=left;verticalAlign=top;spacingLeft=4;spacingRight=4;overflow=hidden;rotatable=0;points=[[0,0.5],[1,0.5]];portConstraint=eastwest;fontColor=default;" parent="NYYMoiH2fDYC1uSWcf2y-328" vertex="1">
          <mxGeometry y="66" width="220" height="26" as="geometry" />
        </mxCell>
        <mxCell id="NYYMoiH2fDYC1uSWcf2y-333" value="+ newItem: ZoteroItem { readOnly }" style="text;strokeColor=none;fillColor=none;align=left;verticalAlign=top;spacingLeft=4;spacingRight=4;overflow=hidden;rotatable=0;points=[[0,0.5],[1,0.5]];portConstraint=eastwest;fontColor=default;" parent="NYYMoiH2fDYC1uSWcf2y-328" vertex="1">
          <mxGeometry y="92" width="220" height="26" as="geometry" />
        </mxCell>
        <mxCell id="NYYMoiH2fDYC1uSWcf2y-331" value="" style="line;strokeWidth=1;fillColor=none;align=left;verticalAlign=middle;spacingTop=-1;spacingLeft=3;spacingRight=3;rotatable=0;labelPosition=right;points=[];portConstraint=eastwest;strokeColor=inherit;fontColor=default;" parent="NYYMoiH2fDYC1uSWcf2y-328" vertex="1">
          <mxGeometry y="118" width="220" height="8" as="geometry" />
        </mxCell>
        <mxCell id="NYYMoiH2fDYC1uSWcf2y-332" value="+ UpdateItemMainEvent(&#xa;        title: String,&#xa;        item: ZoteroItem,&#xa;        newItem: ZoteroItem&#xa;    )" style="text;strokeColor=none;fillColor=none;align=left;verticalAlign=top;spacingLeft=4;spacingRight=4;overflow=hidden;rotatable=0;points=[[0,0.5],[1,0.5]];portConstraint=eastwest;fontColor=default;" parent="NYYMoiH2fDYC1uSWcf2y-328" vertex="1">
          <mxGeometry y="126" width="220" height="78" as="geometry" />
        </mxCell>
        <mxCell id="NYYMoiH2fDYC1uSWcf2y-335" value="&lt;&lt;data class&gt;&gt;&#xa;DeleteItemMainEvent" style="swimlane;fontStyle=0;align=center;verticalAlign=top;childLayout=stackLayout;horizontal=1;startSize=40;horizontalStack=0;resizeParent=1;resizeParentMax=0;resizeLast=0;collapsible=1;marginBottom=0;fontColor=default;" parent="WIyWlLk6GJQsqaUBKTNV-1" vertex="1">
          <mxGeometry x="1240" y="1840" width="220" height="164" as="geometry" />
        </mxCell>
        <mxCell id="NYYMoiH2fDYC1uSWcf2y-336" value="+ collectionTitle: String { readOnly }" style="text;strokeColor=none;fillColor=none;align=left;verticalAlign=top;spacingLeft=4;spacingRight=4;overflow=hidden;rotatable=0;points=[[0,0.5],[1,0.5]];portConstraint=eastwest;fontColor=default;" parent="NYYMoiH2fDYC1uSWcf2y-335" vertex="1">
          <mxGeometry y="40" width="220" height="26" as="geometry" />
        </mxCell>
        <mxCell id="NYYMoiH2fDYC1uSWcf2y-337" value="+ item: ZoteroItem { readOnly }" style="text;strokeColor=none;fillColor=none;align=left;verticalAlign=top;spacingLeft=4;spacingRight=4;overflow=hidden;rotatable=0;points=[[0,0.5],[1,0.5]];portConstraint=eastwest;fontColor=default;" parent="NYYMoiH2fDYC1uSWcf2y-335" vertex="1">
          <mxGeometry y="66" width="220" height="26" as="geometry" />
        </mxCell>
        <mxCell id="NYYMoiH2fDYC1uSWcf2y-338" value="" style="line;strokeWidth=1;fillColor=none;align=left;verticalAlign=middle;spacingTop=-1;spacingLeft=3;spacingRight=3;rotatable=0;labelPosition=right;points=[];portConstraint=eastwest;strokeColor=inherit;fontColor=default;" parent="NYYMoiH2fDYC1uSWcf2y-335" vertex="1">
          <mxGeometry y="92" width="220" height="8" as="geometry" />
        </mxCell>
        <mxCell id="NYYMoiH2fDYC1uSWcf2y-339" value="+ DeleteItemMainEvent(&#xa;        title: String,&#xa;        item: ZoteroItem&#xa;    )" style="text;strokeColor=none;fillColor=none;align=left;verticalAlign=top;spacingLeft=4;spacingRight=4;overflow=hidden;rotatable=0;points=[[0,0.5],[1,0.5]];portConstraint=eastwest;fontColor=default;" parent="NYYMoiH2fDYC1uSWcf2y-335" vertex="1">
          <mxGeometry y="100" width="220" height="64" as="geometry" />
        </mxCell>
        <mxCell id="NYYMoiH2fDYC1uSWcf2y-341" value="Use" style="endArrow=open;endSize=12;dashed=1;html=1;rounded=0;" parent="WIyWlLk6GJQsqaUBKTNV-1" source="NYYMoiH2fDYC1uSWcf2y-22" target="NYYMoiH2fDYC1uSWcf2y-282" edge="1">
          <mxGeometry width="160" relative="1" as="geometry">
            <mxPoint x="1084.3109540636042" y="690" as="sourcePoint" />
            <mxPoint x="973.1802120141342" y="860" as="targetPoint" />
            <Array as="points">
              <mxPoint x="1250" y="770" />
              <mxPoint x="1890" y="770" />
              <mxPoint x="1880" y="1480" />
            </Array>
          </mxGeometry>
        </mxCell>
        <mxCell id="NYYMoiH2fDYC1uSWcf2y-342" value="RegisterComponent" style="swimlane;fontStyle=0;align=center;verticalAlign=top;childLayout=stackLayout;horizontal=1;startSize=26;horizontalStack=0;resizeParent=1;resizeParentMax=0;resizeLast=0;collapsible=1;marginBottom=0;fontColor=default;" parent="WIyWlLk6GJQsqaUBKTNV-1" vertex="1">
          <mxGeometry x="360" y="20" width="280" height="164" as="geometry" />
        </mxCell>
        <mxCell id="NYYMoiH2fDYC1uSWcf2y-343" value="+ registerState: RegisterState" style="text;strokeColor=none;fillColor=none;align=left;verticalAlign=top;spacingLeft=4;spacingRight=4;overflow=hidden;rotatable=0;points=[[0,0.5],[1,0.5]];portConstraint=eastwest;fontColor=default;" parent="NYYMoiH2fDYC1uSWcf2y-342" vertex="1">
          <mxGeometry y="26" width="280" height="26" as="geometry" />
        </mxCell>
        <mxCell id="NYYMoiH2fDYC1uSWcf2y-345" value="- userRepository: IUserRepository { readOnly }" style="text;strokeColor=none;fillColor=none;align=left;verticalAlign=top;spacingLeft=4;spacingRight=4;overflow=hidden;rotatable=0;points=[[0,0.5],[1,0.5]];portConstraint=eastwest;fontColor=default;" parent="NYYMoiH2fDYC1uSWcf2y-342" vertex="1">
          <mxGeometry y="52" width="280" height="26" as="geometry" />
        </mxCell>
        <mxCell id="NYYMoiH2fDYC1uSWcf2y-346" value="" style="line;strokeWidth=1;fillColor=none;align=left;verticalAlign=middle;spacingTop=-1;spacingLeft=3;spacingRight=3;rotatable=0;labelPosition=right;points=[];portConstraint=eastwest;strokeColor=inherit;fontColor=default;" parent="NYYMoiH2fDYC1uSWcf2y-342" vertex="1">
          <mxGeometry y="78" width="280" height="8" as="geometry" />
        </mxCell>
        <mxCell id="NYYMoiH2fDYC1uSWcf2y-347" value="+ reduce(registerEvent: RegisterEvent)" style="text;strokeColor=none;fillColor=none;align=left;verticalAlign=top;spacingLeft=4;spacingRight=4;overflow=hidden;rotatable=0;points=[[0,0.5],[1,0.5]];portConstraint=eastwest;fontColor=default;" parent="NYYMoiH2fDYC1uSWcf2y-342" vertex="1">
          <mxGeometry y="86" width="280" height="26" as="geometry" />
        </mxCell>
        <mxCell id="NYYMoiH2fDYC1uSWcf2y-348" value="+ RegisterComponent(&#xa;        userRepository: IUserRepository&#xa;    )" style="text;strokeColor=none;fillColor=none;align=left;verticalAlign=top;spacingLeft=4;spacingRight=4;overflow=hidden;rotatable=0;points=[[0,0.5],[1,0.5]];portConstraint=eastwest;fontColor=default;" parent="NYYMoiH2fDYC1uSWcf2y-342" vertex="1">
          <mxGeometry y="112" width="280" height="52" as="geometry" />
        </mxCell>
        <mxCell id="NYYMoiH2fDYC1uSWcf2y-349" value="1" style="endArrow=open;html=1;endSize=12;startArrow=diamondThin;startSize=14;startFill=0;edgeStyle=orthogonalEdgeStyle;align=left;verticalAlign=bottom;rounded=0;fontColor=default;" parent="WIyWlLk6GJQsqaUBKTNV-1" source="NYYMoiH2fDYC1uSWcf2y-342" target="NYYMoiH2fDYC1uSWcf2y-2" edge="1">
          <mxGeometry x="-0.8907" y="-15" relative="1" as="geometry">
            <mxPoint x="850" y="405" as="sourcePoint" />
            <mxPoint x="690" y="375" as="targetPoint" />
            <mxPoint as="offset" />
          </mxGeometry>
        </mxCell>
        <mxCell id="NYYMoiH2fDYC1uSWcf2y-350" value="&lt;&lt;data class&gt;&gt;&#xa;RegisterState" style="swimlane;fontStyle=0;align=center;verticalAlign=top;childLayout=stackLayout;horizontal=1;startSize=40;horizontalStack=0;resizeParent=1;resizeParentMax=0;resizeLast=0;collapsible=1;marginBottom=0;fontColor=default;" parent="WIyWlLk6GJQsqaUBKTNV-1" vertex="1">
          <mxGeometry x="740" y="10" width="200" height="204" as="geometry" />
        </mxCell>
        <mxCell id="NYYMoiH2fDYC1uSWcf2y-351" value="+ username: String" style="text;strokeColor=none;fillColor=none;align=left;verticalAlign=top;spacingLeft=4;spacingRight=4;overflow=hidden;rotatable=0;points=[[0,0.5],[1,0.5]];portConstraint=eastwest;fontColor=default;" parent="NYYMoiH2fDYC1uSWcf2y-350" vertex="1">
          <mxGeometry y="40" width="200" height="26" as="geometry" />
        </mxCell>
        <mxCell id="NYYMoiH2fDYC1uSWcf2y-362" value="+ email: String" style="text;strokeColor=none;fillColor=none;align=left;verticalAlign=top;spacingLeft=4;spacingRight=4;overflow=hidden;rotatable=0;points=[[0,0.5],[1,0.5]];portConstraint=eastwest;fontColor=default;" parent="NYYMoiH2fDYC1uSWcf2y-350" vertex="1">
          <mxGeometry y="66" width="200" height="26" as="geometry" />
        </mxCell>
        <mxCell id="NYYMoiH2fDYC1uSWcf2y-363" value="+ emailConfirm: String" style="text;strokeColor=none;fillColor=none;align=left;verticalAlign=top;spacingLeft=4;spacingRight=4;overflow=hidden;rotatable=0;points=[[0,0.5],[1,0.5]];portConstraint=eastwest;fontColor=default;" parent="NYYMoiH2fDYC1uSWcf2y-350" vertex="1">
          <mxGeometry y="92" width="200" height="26" as="geometry" />
        </mxCell>
        <mxCell id="NYYMoiH2fDYC1uSWcf2y-352" value="+ password: String" style="text;strokeColor=none;fillColor=none;align=left;verticalAlign=top;spacingLeft=4;spacingRight=4;overflow=hidden;rotatable=0;points=[[0,0.5],[1,0.5]];portConstraint=eastwest;fontColor=default;" parent="NYYMoiH2fDYC1uSWcf2y-350" vertex="1">
          <mxGeometry y="118" width="200" height="26" as="geometry" />
        </mxCell>
        <mxCell id="NYYMoiH2fDYC1uSWcf2y-353" value="+ verifPassword: String" style="text;strokeColor=none;fillColor=none;align=left;verticalAlign=top;spacingLeft=4;spacingRight=4;overflow=hidden;rotatable=0;points=[[0,0.5],[1,0.5]];portConstraint=eastwest;fontColor=default;" parent="NYYMoiH2fDYC1uSWcf2y-350" vertex="1">
          <mxGeometry y="144" width="200" height="26" as="geometry" />
        </mxCell>
        <mxCell id="NYYMoiH2fDYC1uSWcf2y-354" value="" style="line;strokeWidth=1;fillColor=none;align=left;verticalAlign=middle;spacingTop=-1;spacingLeft=3;spacingRight=3;rotatable=0;labelPosition=right;points=[];portConstraint=eastwest;strokeColor=inherit;fontColor=default;" parent="NYYMoiH2fDYC1uSWcf2y-350" vertex="1">
          <mxGeometry y="170" width="200" height="8" as="geometry" />
        </mxCell>
        <mxCell id="NYYMoiH2fDYC1uSWcf2y-355" value="+ RegisterState()" style="text;strokeColor=none;fillColor=none;align=left;verticalAlign=top;spacingLeft=4;spacingRight=4;overflow=hidden;rotatable=0;points=[[0,0.5],[1,0.5]];portConstraint=eastwest;fontColor=default;" parent="NYYMoiH2fDYC1uSWcf2y-350" vertex="1">
          <mxGeometry y="178" width="200" height="26" as="geometry" />
        </mxCell>
        <mxCell id="NYYMoiH2fDYC1uSWcf2y-356" value="&lt;&lt;value class&gt;&gt;&#xa;PasswordForgotClickLoginEvent" style="swimlane;fontStyle=0;align=center;verticalAlign=top;childLayout=stackLayout;horizontal=1;startSize=42;horizontalStack=0;resizeParent=1;resizeParentMax=0;resizeLast=0;collapsible=1;marginBottom=0;fontColor=default;" parent="WIyWlLk6GJQsqaUBKTNV-1" vertex="1">
          <mxGeometry x="1460" y="628" width="210" height="126" as="geometry" />
        </mxCell>
        <mxCell id="NYYMoiH2fDYC1uSWcf2y-357" value="+ email: String { readOnly }" style="text;strokeColor=none;fillColor=none;align=left;verticalAlign=top;spacingLeft=4;spacingRight=4;overflow=hidden;rotatable=0;points=[[0,0.5],[1,0.5]];portConstraint=eastwest;fontColor=default;" parent="NYYMoiH2fDYC1uSWcf2y-356" vertex="1">
          <mxGeometry y="42" width="210" height="26" as="geometry" />
        </mxCell>
        <mxCell id="NYYMoiH2fDYC1uSWcf2y-358" value="" style="line;strokeWidth=1;fillColor=none;align=left;verticalAlign=middle;spacingTop=-1;spacingLeft=3;spacingRight=3;rotatable=0;labelPosition=right;points=[];portConstraint=eastwest;strokeColor=inherit;fontColor=default;" parent="NYYMoiH2fDYC1uSWcf2y-356" vertex="1">
          <mxGeometry y="68" width="210" height="8" as="geometry" />
        </mxCell>
        <mxCell id="NYYMoiH2fDYC1uSWcf2y-359" value="+ PasswordForgotClickLoginEvent(&#xa;        email: String&#xa;    )" style="text;strokeColor=none;fillColor=none;align=left;verticalAlign=top;spacingLeft=4;spacingRight=4;overflow=hidden;rotatable=0;points=[[0,0.5],[1,0.5]];portConstraint=eastwest;fontColor=default;" parent="NYYMoiH2fDYC1uSWcf2y-356" vertex="1">
          <mxGeometry y="76" width="210" height="50" as="geometry" />
        </mxCell>
        <mxCell id="NYYMoiH2fDYC1uSWcf2y-361" value="Extends" style="endArrow=block;endSize=16;endFill=0;html=1;rounded=0;fontColor=default;" parent="WIyWlLk6GJQsqaUBKTNV-1" source="NYYMoiH2fDYC1uSWcf2y-356" target="NYYMoiH2fDYC1uSWcf2y-239" edge="1">
          <mxGeometry width="160" relative="1" as="geometry">
            <mxPoint x="1835.7142857142858" y="630" as="sourcePoint" />
            <mxPoint x="1701.4285714285716" y="348" as="targetPoint" />
            <Array as="points">
              <mxPoint x="1670" y="550" />
            </Array>
          </mxGeometry>
        </mxCell>
        <mxCell id="NYYMoiH2fDYC1uSWcf2y-365" value="1" style="endArrow=open;html=1;endSize=12;startArrow=diamondThin;startSize=14;startFill=1;edgeStyle=orthogonalEdgeStyle;align=left;verticalAlign=bottom;rounded=0;fontColor=default;" parent="WIyWlLk6GJQsqaUBKTNV-1" source="NYYMoiH2fDYC1uSWcf2y-342" target="NYYMoiH2fDYC1uSWcf2y-350" edge="1">
          <mxGeometry x="-1" y="3" relative="1" as="geometry">
            <mxPoint x="1130" y="405" as="sourcePoint" />
            <mxPoint x="1220" y="449" as="targetPoint" />
          </mxGeometry>
        </mxCell>
        <mxCell id="NYYMoiH2fDYC1uSWcf2y-366" value="&lt;&lt;sealed interface&gt;&gt;&#xa;RegisterEvent    " style="swimlane;fontStyle=0;align=center;verticalAlign=top;childLayout=stackLayout;horizontal=1;startSize=40;horizontalStack=0;resizeParent=1;resizeParentMax=0;resizeLast=0;collapsible=1;marginBottom=0;fontColor=default;" parent="WIyWlLk6GJQsqaUBKTNV-1" vertex="1">
          <mxGeometry x="760" y="230" width="160" height="48" as="geometry" />
        </mxCell>
        <mxCell id="NYYMoiH2fDYC1uSWcf2y-367" value="" style="line;strokeWidth=1;fillColor=none;align=left;verticalAlign=middle;spacingTop=-1;spacingLeft=3;spacingRight=3;rotatable=0;labelPosition=right;points=[];portConstraint=eastwest;strokeColor=inherit;fontColor=default;" parent="NYYMoiH2fDYC1uSWcf2y-366" vertex="1">
          <mxGeometry y="40" width="160" height="8" as="geometry" />
        </mxCell>
        <mxCell id="NYYMoiH2fDYC1uSWcf2y-370" value="&lt;&lt;value class&gt;&gt;&#xa;UsernameChangeRegisterEvent" style="swimlane;fontStyle=0;align=center;verticalAlign=top;childLayout=stackLayout;horizontal=1;startSize=40;horizontalStack=0;resizeParent=1;resizeParentMax=0;resizeLast=0;collapsible=1;marginBottom=0;fontColor=default;" parent="WIyWlLk6GJQsqaUBKTNV-1" vertex="1">
          <mxGeometry x="975" y="16" width="210" height="124" as="geometry" />
        </mxCell>
        <mxCell id="NYYMoiH2fDYC1uSWcf2y-371" value="+ username: String { readOnly }" style="text;strokeColor=none;fillColor=none;align=left;verticalAlign=top;spacingLeft=4;spacingRight=4;overflow=hidden;rotatable=0;points=[[0,0.5],[1,0.5]];portConstraint=eastwest;fontColor=default;" parent="NYYMoiH2fDYC1uSWcf2y-370" vertex="1">
          <mxGeometry y="40" width="210" height="26" as="geometry" />
        </mxCell>
        <mxCell id="NYYMoiH2fDYC1uSWcf2y-372" value="" style="line;strokeWidth=1;fillColor=none;align=left;verticalAlign=middle;spacingTop=-1;spacingLeft=3;spacingRight=3;rotatable=0;labelPosition=right;points=[];portConstraint=eastwest;strokeColor=inherit;fontColor=default;" parent="NYYMoiH2fDYC1uSWcf2y-370" vertex="1">
          <mxGeometry y="66" width="210" height="8" as="geometry" />
        </mxCell>
        <mxCell id="NYYMoiH2fDYC1uSWcf2y-373" value="+ UsernameChangeRegisterEvent(&#xa;        username: String&#xa;    )" style="text;strokeColor=none;fillColor=none;align=left;verticalAlign=top;spacingLeft=4;spacingRight=4;overflow=hidden;rotatable=0;points=[[0,0.5],[1,0.5]];portConstraint=eastwest;fontColor=default;" parent="NYYMoiH2fDYC1uSWcf2y-370" vertex="1">
          <mxGeometry y="74" width="210" height="50" as="geometry" />
        </mxCell>
        <mxCell id="NYYMoiH2fDYC1uSWcf2y-375" value="&lt;&lt;value class&gt;&gt;&#xa;EmailConfirmChangeRegisterEvent" style="swimlane;fontStyle=0;align=center;verticalAlign=top;childLayout=stackLayout;horizontal=1;startSize=40;horizontalStack=0;resizeParent=1;resizeParentMax=0;resizeLast=0;collapsible=1;marginBottom=0;fontColor=default;" parent="WIyWlLk6GJQsqaUBKTNV-1" vertex="1">
          <mxGeometry x="1250" y="16" width="235" height="124" as="geometry" />
        </mxCell>
        <mxCell id="NYYMoiH2fDYC1uSWcf2y-376" value="+ email: String { readOnly }" style="text;strokeColor=none;fillColor=none;align=left;verticalAlign=top;spacingLeft=4;spacingRight=4;overflow=hidden;rotatable=0;points=[[0,0.5],[1,0.5]];portConstraint=eastwest;fontColor=default;" parent="NYYMoiH2fDYC1uSWcf2y-375" vertex="1">
          <mxGeometry y="40" width="235" height="26" as="geometry" />
        </mxCell>
        <mxCell id="NYYMoiH2fDYC1uSWcf2y-377" value="" style="line;strokeWidth=1;fillColor=none;align=left;verticalAlign=middle;spacingTop=-1;spacingLeft=3;spacingRight=3;rotatable=0;labelPosition=right;points=[];portConstraint=eastwest;strokeColor=inherit;fontColor=default;" parent="NYYMoiH2fDYC1uSWcf2y-375" vertex="1">
          <mxGeometry y="66" width="235" height="8" as="geometry" />
        </mxCell>
        <mxCell id="NYYMoiH2fDYC1uSWcf2y-378" value="+ EmailConfirmChangeRegisterEvent(&#xa;        email: String&#xa;    )" style="text;strokeColor=none;fillColor=none;align=left;verticalAlign=top;spacingLeft=4;spacingRight=4;overflow=hidden;rotatable=0;points=[[0,0.5],[1,0.5]];portConstraint=eastwest;fontColor=default;" parent="NYYMoiH2fDYC1uSWcf2y-375" vertex="1">
          <mxGeometry y="74" width="235" height="50" as="geometry" />
        </mxCell>
        <mxCell id="NYYMoiH2fDYC1uSWcf2y-379" value="&lt;&lt;value class&gt;&gt;&#xa;PasswordChangeRegisterEvent" style="swimlane;fontStyle=0;align=center;verticalAlign=top;childLayout=stackLayout;horizontal=1;startSize=40;horizontalStack=0;resizeParent=1;resizeParentMax=0;resizeLast=0;collapsible=1;marginBottom=0;fontColor=default;" parent="WIyWlLk6GJQsqaUBKTNV-1" vertex="1">
          <mxGeometry x="1577.5" width="205" height="124" as="geometry" />
        </mxCell>
        <mxCell id="NYYMoiH2fDYC1uSWcf2y-380" value="+ password: String { readOnly }" style="text;strokeColor=none;fillColor=none;align=left;verticalAlign=top;spacingLeft=4;spacingRight=4;overflow=hidden;rotatable=0;points=[[0,0.5],[1,0.5]];portConstraint=eastwest;fontColor=default;" parent="NYYMoiH2fDYC1uSWcf2y-379" vertex="1">
          <mxGeometry y="40" width="205" height="26" as="geometry" />
        </mxCell>
        <mxCell id="NYYMoiH2fDYC1uSWcf2y-381" value="" style="line;strokeWidth=1;fillColor=none;align=left;verticalAlign=middle;spacingTop=-1;spacingLeft=3;spacingRight=3;rotatable=0;labelPosition=right;points=[];portConstraint=eastwest;strokeColor=inherit;fontColor=default;" parent="NYYMoiH2fDYC1uSWcf2y-379" vertex="1">
          <mxGeometry y="66" width="205" height="8" as="geometry" />
        </mxCell>
        <mxCell id="NYYMoiH2fDYC1uSWcf2y-382" value="+ PasswordChangeRegisterEvent(&#xa;        password: String&#xa;    )" style="text;strokeColor=none;fillColor=none;align=left;verticalAlign=top;spacingLeft=4;spacingRight=4;overflow=hidden;rotatable=0;points=[[0,0.5],[1,0.5]];portConstraint=eastwest;fontColor=default;" parent="NYYMoiH2fDYC1uSWcf2y-379" vertex="1">
          <mxGeometry y="74" width="205" height="50" as="geometry" />
        </mxCell>
        <mxCell id="NYYMoiH2fDYC1uSWcf2y-383" value="&lt;&lt;value class&gt;&gt;&#xa;PasswordVerRegisterEvent" style="swimlane;fontStyle=0;align=center;verticalAlign=top;childLayout=stackLayout;horizontal=1;startSize=42;horizontalStack=0;resizeParent=1;resizeParentMax=0;resizeLast=0;collapsible=1;marginBottom=0;fontColor=default;" parent="WIyWlLk6GJQsqaUBKTNV-1" vertex="1">
          <mxGeometry x="1440" y="152" width="205" height="126" as="geometry" />
        </mxCell>
        <mxCell id="NYYMoiH2fDYC1uSWcf2y-384" value="+ password: String { readOnly }" style="text;strokeColor=none;fillColor=none;align=left;verticalAlign=top;spacingLeft=4;spacingRight=4;overflow=hidden;rotatable=0;points=[[0,0.5],[1,0.5]];portConstraint=eastwest;fontColor=default;" parent="NYYMoiH2fDYC1uSWcf2y-383" vertex="1">
          <mxGeometry y="42" width="205" height="26" as="geometry" />
        </mxCell>
        <mxCell id="NYYMoiH2fDYC1uSWcf2y-385" value="" style="line;strokeWidth=1;fillColor=none;align=left;verticalAlign=middle;spacingTop=-1;spacingLeft=3;spacingRight=3;rotatable=0;labelPosition=right;points=[];portConstraint=eastwest;strokeColor=inherit;fontColor=default;" parent="NYYMoiH2fDYC1uSWcf2y-383" vertex="1">
          <mxGeometry y="68" width="205" height="8" as="geometry" />
        </mxCell>
        <mxCell id="NYYMoiH2fDYC1uSWcf2y-386" value="+ PasswordChangeRegisterEvent(&#xa;        password: String&#xa;    )" style="text;strokeColor=none;fillColor=none;align=left;verticalAlign=top;spacingLeft=4;spacingRight=4;overflow=hidden;rotatable=0;points=[[0,0.5],[1,0.5]];portConstraint=eastwest;fontColor=default;" parent="NYYMoiH2fDYC1uSWcf2y-383" vertex="1">
          <mxGeometry y="76" width="205" height="50" as="geometry" />
        </mxCell>
        <mxCell id="NYYMoiH2fDYC1uSWcf2y-387" value="&lt;&lt;singletone&gt;&gt;&#xa;RegClickRegisterEvent" style="swimlane;fontStyle=0;align=center;verticalAlign=top;childLayout=stackLayout;horizontal=1;startSize=36;horizontalStack=0;resizeParent=1;resizeParentMax=0;resizeLast=0;collapsible=1;marginBottom=0;fontColor=default;" parent="WIyWlLk6GJQsqaUBKTNV-1" vertex="1">
          <mxGeometry x="1170" y="160" width="205" height="70" as="geometry" />
        </mxCell>
        <mxCell id="NYYMoiH2fDYC1uSWcf2y-389" value="" style="line;strokeWidth=1;fillColor=none;align=left;verticalAlign=middle;spacingTop=-1;spacingLeft=3;spacingRight=3;rotatable=0;labelPosition=right;points=[];portConstraint=eastwest;strokeColor=inherit;fontColor=default;" parent="NYYMoiH2fDYC1uSWcf2y-387" vertex="1">
          <mxGeometry y="36" width="205" height="8" as="geometry" />
        </mxCell>
        <mxCell id="NYYMoiH2fDYC1uSWcf2y-390" value="+ RegClickRegisterEvent()" style="text;strokeColor=none;fillColor=none;align=left;verticalAlign=top;spacingLeft=4;spacingRight=4;overflow=hidden;rotatable=0;points=[[0,0.5],[1,0.5]];portConstraint=eastwest;fontColor=default;" parent="NYYMoiH2fDYC1uSWcf2y-387" vertex="1">
          <mxGeometry y="44" width="205" height="26" as="geometry" />
        </mxCell>
        <mxCell id="NYYMoiH2fDYC1uSWcf2y-395" value="&lt;&lt;value class&gt;&gt;&#xa;EmailChangeRegisterEvent" style="swimlane;fontStyle=0;align=center;verticalAlign=top;childLayout=stackLayout;horizontal=1;startSize=40;horizontalStack=0;resizeParent=1;resizeParentMax=0;resizeLast=0;collapsible=1;marginBottom=0;fontColor=default;" parent="WIyWlLk6GJQsqaUBKTNV-1" vertex="1">
          <mxGeometry x="1750" y="150" width="235" height="124" as="geometry" />
        </mxCell>
        <mxCell id="NYYMoiH2fDYC1uSWcf2y-396" value="+ email: String { readOnly }" style="text;strokeColor=none;fillColor=none;align=left;verticalAlign=top;spacingLeft=4;spacingRight=4;overflow=hidden;rotatable=0;points=[[0,0.5],[1,0.5]];portConstraint=eastwest;fontColor=default;" parent="NYYMoiH2fDYC1uSWcf2y-395" vertex="1">
          <mxGeometry y="40" width="235" height="26" as="geometry" />
        </mxCell>
        <mxCell id="NYYMoiH2fDYC1uSWcf2y-397" value="" style="line;strokeWidth=1;fillColor=none;align=left;verticalAlign=middle;spacingTop=-1;spacingLeft=3;spacingRight=3;rotatable=0;labelPosition=right;points=[];portConstraint=eastwest;strokeColor=inherit;fontColor=default;" parent="NYYMoiH2fDYC1uSWcf2y-395" vertex="1">
          <mxGeometry y="66" width="235" height="8" as="geometry" />
        </mxCell>
        <mxCell id="NYYMoiH2fDYC1uSWcf2y-398" value="+ EmailChangeRegisterEvent(&#xa;        email: String&#xa;    )" style="text;strokeColor=none;fillColor=none;align=left;verticalAlign=top;spacingLeft=4;spacingRight=4;overflow=hidden;rotatable=0;points=[[0,0.5],[1,0.5]];portConstraint=eastwest;fontColor=default;" parent="NYYMoiH2fDYC1uSWcf2y-395" vertex="1">
          <mxGeometry y="74" width="235" height="50" as="geometry" />
        </mxCell>
        <mxCell id="naM0Vag8xCBrJSv8B079-0" value="WordProcessorComponent" style="swimlane;fontStyle=0;align=center;verticalAlign=top;childLayout=stackLayout;horizontal=1;startSize=26;horizontalStack=0;resizeParent=1;resizeParentMax=0;resizeLast=0;collapsible=1;marginBottom=0;fontColor=default;" parent="WIyWlLk6GJQsqaUBKTNV-1" vertex="1">
          <mxGeometry x="1580" y="1576" width="320" height="276" as="geometry" />
        </mxCell>
        <mxCell id="naM0Vag8xCBrJSv8B079-3" value="- collectionRepository: ICollectionRepository{ readOnly }" style="text;strokeColor=none;fillColor=none;align=left;verticalAlign=top;spacingLeft=4;spacingRight=4;overflow=hidden;rotatable=0;points=[[0,0.5],[1,0.5]];portConstraint=eastwest;fontColor=default;" parent="naM0Vag8xCBrJSv8B079-0" vertex="1">
          <mxGeometry y="26" width="320" height="26" as="geometry" />
        </mxCell>
        <mxCell id="naM0Vag8xCBrJSv8B079-6" value="" style="line;strokeWidth=1;fillColor=none;align=left;verticalAlign=middle;spacingTop=-1;spacingLeft=3;spacingRight=3;rotatable=0;labelPosition=right;points=[];portConstraint=eastwest;strokeColor=inherit;fontColor=default;" parent="naM0Vag8xCBrJSv8B079-0" vertex="1">
          <mxGeometry y="52" width="320" height="8" as="geometry" />
        </mxCell>
        <mxCell id="naM0Vag8xCBrJSv8B079-7" value="+ generateCitations(&#xa;    zoteroItemTitle: String, &#xa;    citationStyle: CitationStyle, &#xa;    displayCitationsAsFootnotes: Boolean, &#xa;    displayCitationsAsEndnotes: Boolean,&#xa;    storeCitationsAsFields: Boolean,&#xa;    useMedlineJournalAbbreviation: Boolean,&#xa;    automaticallyUpdateCitations: Boolean&#xa;)" style="text;strokeColor=none;fillColor=none;align=left;verticalAlign=top;spacingLeft=4;spacingRight=4;overflow=hidden;rotatable=0;points=[[0,0.5],[1,0.5]];portConstraint=eastwest;fontColor=default;" parent="naM0Vag8xCBrJSv8B079-0" vertex="1">
          <mxGeometry y="60" width="320" height="140" as="geometry" />
        </mxCell>
        <mxCell id="naM0Vag8xCBrJSv8B079-8" value="+ WordProcessorComponent(&#xa;        collectionRepository: ICollectionRepository,&#xa;    )" style="text;strokeColor=none;fillColor=none;align=left;verticalAlign=top;spacingLeft=4;spacingRight=4;overflow=hidden;rotatable=0;points=[[0,0.5],[1,0.5]];portConstraint=eastwest;fontColor=default;" parent="naM0Vag8xCBrJSv8B079-0" vertex="1">
          <mxGeometry y="200" width="320" height="76" as="geometry" />
        </mxCell>
        <mxCell id="naM0Vag8xCBrJSv8B079-12" value="1" style="endArrow=open;html=1;endSize=12;startArrow=diamondThin;startSize=14;startFill=0;edgeStyle=orthogonalEdgeStyle;align=left;verticalAlign=bottom;rounded=0;" parent="WIyWlLk6GJQsqaUBKTNV-1" source="naM0Vag8xCBrJSv8B079-0" target="NYYMoiH2fDYC1uSWcf2y-141" edge="1">
          <mxGeometry x="-1" y="3" relative="1" as="geometry">
            <mxPoint x="1090" y="1230" as="sourcePoint" />
            <mxPoint x="1250" y="1230" as="targetPoint" />
            <Array as="points">
              <mxPoint x="1950" y="1683" />
              <mxPoint x="1950" y="1020" />
            </Array>
          </mxGeometry>
        </mxCell>
        <mxCell id="naM0Vag8xCBrJSv8B079-13" value="1" style="endArrow=open;html=1;endSize=12;startArrow=diamondThin;startSize=14;startFill=0;edgeStyle=orthogonalEdgeStyle;align=left;verticalAlign=bottom;rounded=0;" parent="WIyWlLk6GJQsqaUBKTNV-1" source="naM0Vag8xCBrJSv8B079-0" target="NYYMoiH2fDYC1uSWcf2y-188" edge="1">
          <mxGeometry x="-1" y="3" relative="1" as="geometry">
            <mxPoint x="1520" y="1160" as="sourcePoint" />
            <mxPoint x="1680" y="1160" as="targetPoint" />
            <Array as="points">
              <mxPoint x="1920" y="1590" />
              <mxPoint x="1920" y="1070" />
              <mxPoint x="1380" y="1070" />
            </Array>
          </mxGeometry>
        </mxCell>
        <mxCell id="5" value="&lt;&lt;value class&gt;&gt; &#xa;AddItemByIDMainEvent" style="swimlane;fontStyle=0;align=center;verticalAlign=top;childLayout=stackLayout;horizontal=1;startSize=40;horizontalStack=0;resizeParent=1;resizeParentMax=0;resizeLast=0;collapsible=1;marginBottom=0;fontColor=default;" parent="WIyWlLk6GJQsqaUBKTNV-1" vertex="1">
          <mxGeometry x="1000" y="1810" width="220" height="138" as="geometry" />
        </mxCell>
        <mxCell id="6" value="+ id: String { readOnly }" style="text;strokeColor=none;fillColor=none;align=left;verticalAlign=top;spacingLeft=4;spacingRight=4;overflow=hidden;rotatable=0;points=[[0,0.5],[1,0.5]];portConstraint=eastwest;fontColor=default;" parent="5" vertex="1">
          <mxGeometry y="40" width="220" height="26" as="geometry" />
        </mxCell>
        <mxCell id="8" value="" style="line;strokeWidth=1;fillColor=none;align=left;verticalAlign=middle;spacingTop=-1;spacingLeft=3;spacingRight=3;rotatable=0;labelPosition=right;points=[];portConstraint=eastwest;strokeColor=inherit;fontColor=default;" parent="5" vertex="1">
          <mxGeometry y="66" width="220" height="8" as="geometry" />
        </mxCell>
        <mxCell id="9" value="+ AddItemByIDMainEvent(&#xa;        id: String&#xa;    )" style="text;strokeColor=none;fillColor=none;align=left;verticalAlign=top;spacingLeft=4;spacingRight=4;overflow=hidden;rotatable=0;points=[[0,0.5],[1,0.5]];portConstraint=eastwest;fontColor=default;" parent="5" vertex="1">
          <mxGeometry y="74" width="220" height="64" as="geometry" />
        </mxCell>
        <mxCell id="10" value="&lt;&lt;enumeraqation&gt;&gt;&#xa;Condition" style="swimlane;fontStyle=0;childLayout=stackLayout;horizontal=1;startSize=40;fillColor=none;horizontalStack=0;resizeParent=1;resizeParentMax=0;resizeLast=0;collapsible=1;marginBottom=0;" parent="WIyWlLk6GJQsqaUBKTNV-1" vertex="1">
          <mxGeometry x="23" y="580" width="140" height="170" as="geometry" />
        </mxCell>
        <mxCell id="11" value="Is" style="text;strokeColor=none;fillColor=none;align=left;verticalAlign=top;spacingLeft=4;spacingRight=4;overflow=hidden;rotatable=0;points=[[0,0.5],[1,0.5]];portConstraint=eastwest;" parent="10" vertex="1">
          <mxGeometry y="40" width="140" height="26" as="geometry" />
        </mxCell>
        <mxCell id="12" value="IsNot" style="text;strokeColor=none;fillColor=none;align=left;verticalAlign=top;spacingLeft=4;spacingRight=4;overflow=hidden;rotatable=0;points=[[0,0.5],[1,0.5]];portConstraint=eastwest;" parent="10" vertex="1">
          <mxGeometry y="66" width="140" height="26" as="geometry" />
        </mxCell>
        <mxCell id="13" value="BeginsWith" style="text;strokeColor=none;fillColor=none;align=left;verticalAlign=top;spacingLeft=4;spacingRight=4;overflow=hidden;rotatable=0;points=[[0,0.5],[1,0.5]];portConstraint=eastwest;" parent="10" vertex="1">
          <mxGeometry y="92" width="140" height="26" as="geometry" />
        </mxCell>
        <mxCell id="14" value="Contains" style="text;strokeColor=none;fillColor=none;align=left;verticalAlign=top;spacingLeft=4;spacingRight=4;overflow=hidden;rotatable=0;points=[[0,0.5],[1,0.5]];portConstraint=eastwest;" parent="10" vertex="1">
          <mxGeometry y="118" width="140" height="26" as="geometry" />
        </mxCell>
        <mxCell id="15" value="DoesNotContain" style="text;strokeColor=none;fillColor=none;align=left;verticalAlign=top;spacingLeft=4;spacingRight=4;overflow=hidden;rotatable=0;points=[[0,0.5],[1,0.5]];portConstraint=eastwest;" parent="10" vertex="1">
          <mxGeometry y="144" width="140" height="26" as="geometry" />
        </mxCell>
        <mxCell id="28" value="AdvancedSearchComponent" style="swimlane;fontStyle=0;align=center;verticalAlign=top;childLayout=stackLayout;horizontal=1;startSize=26;horizontalStack=0;resizeParent=1;resizeParentMax=0;resizeLast=0;collapsible=1;marginBottom=0;fontColor=default;" parent="WIyWlLk6GJQsqaUBKTNV-1" vertex="1">
          <mxGeometry x="1545" y="2114" width="320" height="170" as="geometry" />
        </mxCell>
        <mxCell id="29" value="+ advancedSearchState: AdvancedSearchState" style="text;strokeColor=none;fillColor=none;align=left;verticalAlign=top;spacingLeft=4;spacingRight=4;overflow=hidden;rotatable=0;points=[[0,0.5],[1,0.5]];portConstraint=eastwest;fontColor=default;" parent="28" vertex="1">
          <mxGeometry y="26" width="320" height="26" as="geometry" />
        </mxCell>
        <mxCell id="32" value="- itemRepository: IItemRepository { readOnly }&#xa;" style="text;strokeColor=none;fillColor=none;align=left;verticalAlign=top;spacingLeft=4;spacingRight=4;overflow=hidden;rotatable=0;points=[[0,0.5],[1,0.5]];portConstraint=eastwest;fontColor=default;" parent="28" vertex="1">
          <mxGeometry y="52" width="320" height="26" as="geometry" />
        </mxCell>
        <mxCell id="34" value="" style="line;strokeWidth=1;fillColor=none;align=left;verticalAlign=middle;spacingTop=-1;spacingLeft=3;spacingRight=3;rotatable=0;labelPosition=right;points=[];portConstraint=eastwest;strokeColor=inherit;fontColor=default;" parent="28" vertex="1">
          <mxGeometry y="78" width="320" height="8" as="geometry" />
        </mxCell>
        <mxCell id="35" value="+ reduce(mainEvent: MainEvent)" style="text;strokeColor=none;fillColor=none;align=left;verticalAlign=top;spacingLeft=4;spacingRight=4;overflow=hidden;rotatable=0;points=[[0,0.5],[1,0.5]];portConstraint=eastwest;fontColor=default;" parent="28" vertex="1">
          <mxGeometry y="86" width="320" height="26" as="geometry" />
        </mxCell>
        <mxCell id="36" value="+ AdvancedSearchComponent(&#xa;        itemRepository: IItemRepository,&#xa;    )" style="text;strokeColor=none;fillColor=none;align=left;verticalAlign=top;spacingLeft=4;spacingRight=4;overflow=hidden;rotatable=0;points=[[0,0.5],[1,0.5]];portConstraint=eastwest;fontColor=default;" parent="28" vertex="1">
          <mxGeometry y="112" width="320" height="58" as="geometry" />
        </mxCell>
        <mxCell id="38" value="SeachQuery" style="swimlane;fontStyle=0;align=center;verticalAlign=top;childLayout=stackLayout;horizontal=1;startSize=26;horizontalStack=0;resizeParent=1;resizeParentMax=0;resizeLast=0;collapsible=1;marginBottom=0;" parent="WIyWlLk6GJQsqaUBKTNV-1" vertex="1">
          <mxGeometry x="240" y="730" width="200" height="190" as="geometry" />
        </mxCell>
        <mxCell id="39" value="+ searchField: String { readOnly }" style="text;strokeColor=none;fillColor=none;align=left;verticalAlign=top;spacingLeft=4;spacingRight=4;overflow=hidden;rotatable=0;points=[[0,0.5],[1,0.5]];portConstraint=eastwest;" parent="38" vertex="1">
          <mxGeometry y="26" width="200" height="26" as="geometry" />
        </mxCell>
        <mxCell id="40" value="+ condition: Condition { readOnly }" style="text;strokeColor=none;fillColor=none;align=left;verticalAlign=top;spacingLeft=4;spacingRight=4;overflow=hidden;rotatable=0;points=[[0,0.5],[1,0.5]];portConstraint=eastwest;" parent="38" vertex="1">
          <mxGeometry y="52" width="200" height="26" as="geometry" />
        </mxCell>
        <mxCell id="43" value="+ searchValue: String { readOnly }" style="text;strokeColor=none;fillColor=none;align=left;verticalAlign=top;spacingLeft=4;spacingRight=4;overflow=hidden;rotatable=0;points=[[0,0.5],[1,0.5]];portConstraint=eastwest;" parent="38" vertex="1">
          <mxGeometry y="78" width="200" height="26" as="geometry" />
        </mxCell>
        <mxCell id="41" value="" style="line;strokeWidth=1;fillColor=none;align=left;verticalAlign=middle;spacingTop=-1;spacingLeft=3;spacingRight=3;rotatable=0;labelPosition=right;points=[];portConstraint=eastwest;strokeColor=inherit;" parent="38" vertex="1">
          <mxGeometry y="104" width="200" height="8" as="geometry" />
        </mxCell>
        <mxCell id="42" value="+ SearchQuery(&#xa;        searchField: String,&#xa;        condition: Condition,&#xa;        searchValue: String&#xa;    )" style="text;strokeColor=none;fillColor=none;align=left;verticalAlign=top;spacingLeft=4;spacingRight=4;overflow=hidden;rotatable=0;points=[[0,0.5],[1,0.5]];portConstraint=eastwest;" parent="38" vertex="1">
          <mxGeometry y="112" width="200" height="78" as="geometry" />
        </mxCell>
        <mxCell id="44" value="1" style="endArrow=open;html=1;endSize=12;startArrow=diamondThin;startSize=14;startFill=1;edgeStyle=orthogonalEdgeStyle;align=left;verticalAlign=bottom;rounded=0;" parent="WIyWlLk6GJQsqaUBKTNV-1" source="38" target="10" edge="1">
          <mxGeometry x="-1" y="3" relative="1" as="geometry">
            <mxPoint x="590" y="590" as="sourcePoint" />
            <mxPoint x="750" y="590" as="targetPoint" />
          </mxGeometry>
        </mxCell>
        <mxCell id="45" value="Use" style="endArrow=open;endSize=12;dashed=1;html=1;rounded=0;" parent="WIyWlLk6GJQsqaUBKTNV-1" source="NYYMoiH2fDYC1uSWcf2y-141" target="38" edge="1">
          <mxGeometry width="160" relative="1" as="geometry">
            <mxPoint x="897.3170731707319" y="700" as="sourcePoint" />
            <mxPoint x="833.9024390243903" y="820" as="targetPoint" />
          </mxGeometry>
        </mxCell>
        <mxCell id="46" value="MainState" style="swimlane;fontStyle=0;align=center;verticalAlign=top;childLayout=stackLayout;horizontal=1;startSize=26;horizontalStack=0;resizeParent=1;resizeParentMax=0;resizeLast=0;collapsible=1;marginBottom=0;fontColor=default;" parent="WIyWlLk6GJQsqaUBKTNV-1" vertex="1">
          <mxGeometry x="1640" y="2359" width="320" height="112" as="geometry" />
        </mxCell>
        <mxCell id="47" value="+ marchAll: Boolean" style="text;strokeColor=none;fillColor=none;align=left;verticalAlign=top;spacingLeft=4;spacingRight=4;overflow=hidden;rotatable=0;points=[[0,0.5],[1,0.5]];portConstraint=eastwest;fontColor=default;" parent="46" vertex="1">
          <mxGeometry y="26" width="320" height="26" as="geometry" />
        </mxCell>
        <mxCell id="50" value="+ seachQueries: SearchQuery [1..n]" style="text;strokeColor=none;fillColor=none;align=left;verticalAlign=top;spacingLeft=4;spacingRight=4;overflow=hidden;rotatable=0;points=[[0,0.5],[1,0.5]];portConstraint=eastwest;fontColor=default;" parent="46" vertex="1">
          <mxGeometry y="52" width="320" height="26" as="geometry" />
        </mxCell>
        <mxCell id="48" value="" style="line;strokeWidth=1;fillColor=none;align=left;verticalAlign=middle;spacingTop=-1;spacingLeft=3;spacingRight=3;rotatable=0;labelPosition=right;points=[];portConstraint=eastwest;strokeColor=inherit;fontColor=default;" parent="46" vertex="1">
          <mxGeometry y="78" width="320" height="8" as="geometry" />
        </mxCell>
        <mxCell id="49" value="+ MainState()" style="text;strokeColor=none;fillColor=none;align=left;verticalAlign=top;spacingLeft=4;spacingRight=4;overflow=hidden;rotatable=0;points=[[0,0.5],[1,0.5]];portConstraint=eastwest;fontColor=default;" parent="46" vertex="1">
          <mxGeometry y="86" width="320" height="26" as="geometry" />
        </mxCell>
        <mxCell id="53" value="" style="endArrow=none;html=1;edgeStyle=orthogonalEdgeStyle;rounded=0;startArrow=none;" parent="WIyWlLk6GJQsqaUBKTNV-1" source="46" target="42" edge="1">
          <mxGeometry relative="1" as="geometry">
            <mxPoint x="1820" y="2146" as="sourcePoint" />
            <mxPoint x="329" y="756" as="targetPoint" />
            <Array as="points">
              <mxPoint x="1940" y="2146" />
              <mxPoint x="1940" y="960" />
              <mxPoint x="370" y="960" />
            </Array>
          </mxGeometry>
        </mxCell>
        <mxCell id="55" value="&lt;&lt;sealed interface&gt;&gt;&#xa;AdvancedSeachEvent    " style="swimlane;fontStyle=0;align=center;verticalAlign=top;childLayout=stackLayout;horizontal=1;startSize=40;horizontalStack=0;resizeParent=1;resizeParentMax=0;resizeLast=0;collapsible=1;marginBottom=0;fontColor=default;" parent="WIyWlLk6GJQsqaUBKTNV-1" vertex="1">
          <mxGeometry x="1230" y="2090" width="220" height="48" as="geometry" />
        </mxCell>
        <mxCell id="56" value="" style="line;strokeWidth=1;fillColor=none;align=left;verticalAlign=middle;spacingTop=-1;spacingLeft=3;spacingRight=3;rotatable=0;labelPosition=right;points=[];portConstraint=eastwest;strokeColor=inherit;fontColor=default;" parent="55" vertex="1">
          <mxGeometry y="40" width="220" height="8" as="geometry" />
        </mxCell>
        <mxCell id="57" value="AddQuery" style="swimlane;fontStyle=0;align=center;verticalAlign=top;childLayout=stackLayout;horizontal=1;startSize=26;horizontalStack=0;resizeParent=1;resizeParentMax=0;resizeLast=0;collapsible=1;marginBottom=0;fontColor=default;" parent="WIyWlLk6GJQsqaUBKTNV-1" vertex="1">
          <mxGeometry x="1100" y="1990" width="110" height="60" as="geometry" />
        </mxCell>
        <mxCell id="60" value="" style="line;strokeWidth=1;fillColor=none;align=left;verticalAlign=middle;spacingTop=-1;spacingLeft=3;spacingRight=3;rotatable=0;labelPosition=right;points=[];portConstraint=eastwest;strokeColor=inherit;fontColor=default;" parent="57" vertex="1">
          <mxGeometry y="26" width="110" height="8" as="geometry" />
        </mxCell>
        <mxCell id="61" value="+ AddQuery()" style="text;strokeColor=none;fillColor=none;align=left;verticalAlign=top;spacingLeft=4;spacingRight=4;overflow=hidden;rotatable=0;points=[[0,0.5],[1,0.5]];portConstraint=eastwest;fontColor=default;" parent="57" vertex="1">
          <mxGeometry y="34" width="110" height="26" as="geometry" />
        </mxCell>
        <mxCell id="62" value="" style="endArrow=block;dashed=1;endFill=0;endSize=12;html=1;rounded=0;" parent="WIyWlLk6GJQsqaUBKTNV-1" source="57" target="55" edge="1">
          <mxGeometry width="160" relative="1" as="geometry">
            <mxPoint x="1025" y="2020" as="sourcePoint" />
            <mxPoint x="1091.6666666666667" y="2070" as="targetPoint" />
          </mxGeometry>
        </mxCell>
        <mxCell id="63" value="MatchAllChangeSearchEvent" style="swimlane;fontStyle=0;align=center;verticalAlign=top;childLayout=stackLayout;horizontal=1;startSize=26;horizontalStack=0;resizeParent=1;resizeParentMax=0;resizeLast=0;collapsible=1;marginBottom=0;fontColor=default;" parent="WIyWlLk6GJQsqaUBKTNV-1" vertex="1">
          <mxGeometry x="850" y="1990" width="220" height="124" as="geometry" />
        </mxCell>
        <mxCell id="64" value="+ marchAll: Boolean { readOnly }" style="text;strokeColor=none;fillColor=none;align=left;verticalAlign=top;spacingLeft=4;spacingRight=4;overflow=hidden;rotatable=0;points=[[0,0.5],[1,0.5]];portConstraint=eastwest;fontColor=default;" parent="63" vertex="1">
          <mxGeometry y="26" width="220" height="26" as="geometry" />
        </mxCell>
        <mxCell id="65" value="" style="line;strokeWidth=1;fillColor=none;align=left;verticalAlign=middle;spacingTop=-1;spacingLeft=3;spacingRight=3;rotatable=0;labelPosition=right;points=[];portConstraint=eastwest;strokeColor=inherit;fontColor=default;" parent="63" vertex="1">
          <mxGeometry y="52" width="220" height="8" as="geometry" />
        </mxCell>
        <mxCell id="66" value="+ MatchAllChangeSearchEvent(&#xa;        matchAll: Boolean&#xa;    )" style="text;strokeColor=none;fillColor=none;align=left;verticalAlign=top;spacingLeft=4;spacingRight=4;overflow=hidden;rotatable=0;points=[[0,0.5],[1,0.5]];portConstraint=eastwest;fontColor=default;" parent="63" vertex="1">
          <mxGeometry y="60" width="220" height="64" as="geometry" />
        </mxCell>
        <mxCell id="68" value="QueryConditionChangeSearchEvent" style="swimlane;fontStyle=0;align=center;verticalAlign=top;childLayout=stackLayout;horizontal=1;startSize=26;horizontalStack=0;resizeParent=1;resizeParentMax=0;resizeLast=0;collapsible=1;marginBottom=0;fontColor=default;" parent="WIyWlLk6GJQsqaUBKTNV-1" vertex="1">
          <mxGeometry x="880" y="2170" width="240" height="150" as="geometry" />
        </mxCell>
        <mxCell id="69" value="+ queryId: UInt { readOnly }" style="text;strokeColor=none;fillColor=none;align=left;verticalAlign=top;spacingLeft=4;spacingRight=4;overflow=hidden;rotatable=0;points=[[0,0.5],[1,0.5]];portConstraint=eastwest;fontColor=default;" parent="68" vertex="1">
          <mxGeometry y="26" width="240" height="26" as="geometry" />
        </mxCell>
        <mxCell id="72" value="+ queryCondition: Condition { readOnly }" style="text;strokeColor=none;fillColor=none;align=left;verticalAlign=top;spacingLeft=4;spacingRight=4;overflow=hidden;rotatable=0;points=[[0,0.5],[1,0.5]];portConstraint=eastwest;fontColor=default;" parent="68" vertex="1">
          <mxGeometry y="52" width="240" height="26" as="geometry" />
        </mxCell>
        <mxCell id="70" value="" style="line;strokeWidth=1;fillColor=none;align=left;verticalAlign=middle;spacingTop=-1;spacingLeft=3;spacingRight=3;rotatable=0;labelPosition=right;points=[];portConstraint=eastwest;strokeColor=inherit;fontColor=default;" parent="68" vertex="1">
          <mxGeometry y="78" width="240" height="8" as="geometry" />
        </mxCell>
        <mxCell id="71" value="+ QueryConditionChangeSearchEvent(&#xa;        queryId: UInt,&#xa;        queryCondition: Condition&#xa;    )" style="text;strokeColor=none;fillColor=none;align=left;verticalAlign=top;spacingLeft=4;spacingRight=4;overflow=hidden;rotatable=0;points=[[0,0.5],[1,0.5]];portConstraint=eastwest;fontColor=default;" parent="68" vertex="1">
          <mxGeometry y="86" width="240" height="64" as="geometry" />
        </mxCell>
        <mxCell id="73" value="1" style="endArrow=open;html=1;endSize=12;startArrow=diamondThin;startSize=14;startFill=1;edgeStyle=orthogonalEdgeStyle;align=left;verticalAlign=bottom;rounded=0;" parent="WIyWlLk6GJQsqaUBKTNV-1" source="68" target="38" edge="1">
          <mxGeometry x="-0.9903" y="-15" relative="1" as="geometry">
            <mxPoint x="270" y="850" as="sourcePoint" />
            <mxPoint x="173" y="675" as="targetPoint" />
            <Array as="points">
              <mxPoint x="290" y="2245" />
            </Array>
            <mxPoint as="offset" />
          </mxGeometry>
        </mxCell>
        <mxCell id="74" value="" style="endArrow=block;dashed=1;endFill=0;endSize=12;html=1;rounded=0;" parent="WIyWlLk6GJQsqaUBKTNV-1" source="63" target="55" edge="1">
          <mxGeometry width="160" relative="1" as="geometry">
            <mxPoint x="1377.5" y="2190" as="sourcePoint" />
            <mxPoint x="1360" y="2148" as="targetPoint" />
          </mxGeometry>
        </mxCell>
        <mxCell id="75" value="" style="endArrow=block;dashed=1;endFill=0;endSize=12;html=1;rounded=0;" parent="WIyWlLk6GJQsqaUBKTNV-1" source="68" target="55" edge="1">
          <mxGeometry width="160" relative="1" as="geometry">
            <mxPoint x="1080" y="2079.947368421053" as="sourcePoint" />
            <mxPoint x="1240" y="2106.0526315789475" as="targetPoint" />
          </mxGeometry>
        </mxCell>
        <mxCell id="76" value="QuerySearchFieldChangeSearchEvent" style="swimlane;fontStyle=0;align=center;verticalAlign=top;childLayout=stackLayout;horizontal=1;startSize=26;horizontalStack=0;resizeParent=1;resizeParentMax=0;resizeLast=0;collapsible=1;marginBottom=0;fontColor=default;" parent="WIyWlLk6GJQsqaUBKTNV-1" vertex="1">
          <mxGeometry x="1000" y="2340" width="240" height="150" as="geometry" />
        </mxCell>
        <mxCell id="77" value="+ queryId: UInt { readOnly }" style="text;strokeColor=none;fillColor=none;align=left;verticalAlign=top;spacingLeft=4;spacingRight=4;overflow=hidden;rotatable=0;points=[[0,0.5],[1,0.5]];portConstraint=eastwest;fontColor=default;" parent="76" vertex="1">
          <mxGeometry y="26" width="240" height="26" as="geometry" />
        </mxCell>
        <mxCell id="78" value="+ searchField: String { readOnly }" style="text;strokeColor=none;fillColor=none;align=left;verticalAlign=top;spacingLeft=4;spacingRight=4;overflow=hidden;rotatable=0;points=[[0,0.5],[1,0.5]];portConstraint=eastwest;fontColor=default;" parent="76" vertex="1">
          <mxGeometry y="52" width="240" height="26" as="geometry" />
        </mxCell>
        <mxCell id="79" value="" style="line;strokeWidth=1;fillColor=none;align=left;verticalAlign=middle;spacingTop=-1;spacingLeft=3;spacingRight=3;rotatable=0;labelPosition=right;points=[];portConstraint=eastwest;strokeColor=inherit;fontColor=default;" parent="76" vertex="1">
          <mxGeometry y="78" width="240" height="8" as="geometry" />
        </mxCell>
        <mxCell id="80" value="+ QuerySearchFieldChangeSearchEvent(&#xa;        queryId: UInt,&#xa;        searchField: String&#xa;    )" style="text;strokeColor=none;fillColor=none;align=left;verticalAlign=top;spacingLeft=4;spacingRight=4;overflow=hidden;rotatable=0;points=[[0,0.5],[1,0.5]];portConstraint=eastwest;fontColor=default;" parent="76" vertex="1">
          <mxGeometry y="86" width="240" height="64" as="geometry" />
        </mxCell>
        <mxCell id="81" value="" style="endArrow=block;dashed=1;endFill=0;endSize=12;html=1;rounded=0;" parent="WIyWlLk6GJQsqaUBKTNV-1" source="76" target="55" edge="1">
          <mxGeometry width="160" relative="1" as="geometry">
            <mxPoint x="1129.9999999999995" y="2208.764705882353" as="sourcePoint" />
            <mxPoint x="1287.7099236641225" y="2148" as="targetPoint" />
          </mxGeometry>
        </mxCell>
        <mxCell id="82" value="QuerySearchValueChangeSearchEvent" style="swimlane;fontStyle=0;align=center;verticalAlign=top;childLayout=stackLayout;horizontal=1;startSize=26;horizontalStack=0;resizeParent=1;resizeParentMax=0;resizeLast=0;collapsible=1;marginBottom=0;fontColor=default;" parent="WIyWlLk6GJQsqaUBKTNV-1" vertex="1">
          <mxGeometry x="1330" y="2310" width="240" height="150" as="geometry" />
        </mxCell>
        <mxCell id="83" value="+ queryId: UInt { readOnly }" style="text;strokeColor=none;fillColor=none;align=left;verticalAlign=top;spacingLeft=4;spacingRight=4;overflow=hidden;rotatable=0;points=[[0,0.5],[1,0.5]];portConstraint=eastwest;fontColor=default;" parent="82" vertex="1">
          <mxGeometry y="26" width="240" height="26" as="geometry" />
        </mxCell>
        <mxCell id="84" value="+ searchValue: String { readOnly }" style="text;strokeColor=none;fillColor=none;align=left;verticalAlign=top;spacingLeft=4;spacingRight=4;overflow=hidden;rotatable=0;points=[[0,0.5],[1,0.5]];portConstraint=eastwest;fontColor=default;" parent="82" vertex="1">
          <mxGeometry y="52" width="240" height="26" as="geometry" />
        </mxCell>
        <mxCell id="85" value="" style="line;strokeWidth=1;fillColor=none;align=left;verticalAlign=middle;spacingTop=-1;spacingLeft=3;spacingRight=3;rotatable=0;labelPosition=right;points=[];portConstraint=eastwest;strokeColor=inherit;fontColor=default;" parent="82" vertex="1">
          <mxGeometry y="78" width="240" height="8" as="geometry" />
        </mxCell>
        <mxCell id="86" value="+ QuerySearchValueChangeSearchEvent(&#xa;        queryId: UInt,&#xa;        searchValue: String&#xa;    )" style="text;strokeColor=none;fillColor=none;align=left;verticalAlign=top;spacingLeft=4;spacingRight=4;overflow=hidden;rotatable=0;points=[[0,0.5],[1,0.5]];portConstraint=eastwest;fontColor=default;" parent="82" vertex="1">
          <mxGeometry y="86" width="240" height="64" as="geometry" />
        </mxCell>
        <mxCell id="87" value="" style="endArrow=block;dashed=1;endFill=0;endSize=12;html=1;rounded=0;" parent="WIyWlLk6GJQsqaUBKTNV-1" source="82" target="55" edge="1">
          <mxGeometry width="160" relative="1" as="geometry">
            <mxPoint x="1184.8172757475086" y="2350" as="sourcePoint" />
            <mxPoint x="1332.4584717607977" y="2148" as="targetPoint" />
          </mxGeometry>
        </mxCell>
        <mxCell id="89" value="Use" style="endArrow=open;endSize=12;dashed=1;html=1;rounded=0;" parent="WIyWlLk6GJQsqaUBKTNV-1" source="55" target="28" edge="1">
          <mxGeometry width="160" relative="1" as="geometry">
            <mxPoint x="951.4196242171188" y="1280" as="sourcePoint" />
            <mxPoint x="1307.4947807933195" y="952" as="targetPoint" />
          </mxGeometry>
        </mxCell>
        <mxCell id="90" value="1" style="endArrow=open;html=1;endSize=12;startArrow=diamondThin;startSize=14;startFill=0;edgeStyle=orthogonalEdgeStyle;align=left;verticalAlign=bottom;rounded=0;" parent="WIyWlLk6GJQsqaUBKTNV-1" source="28" target="NYYMoiH2fDYC1uSWcf2y-141" edge="1">
          <mxGeometry x="-1" y="3" relative="1" as="geometry">
            <mxPoint x="1910" y="1693.0666666666666" as="sourcePoint" />
            <mxPoint x="720" y="938" as="targetPoint" />
            <Array as="points">
              <mxPoint x="1960" y="1960" />
              <mxPoint x="1960" y="1030" />
              <mxPoint x="820" y="1030" />
            </Array>
          </mxGeometry>
        </mxCell>
        <mxCell id="91" value="&lt;&lt;data class&gt;&gt;&#xa;LoginDTO" style="swimlane;fontStyle=0;align=center;verticalAlign=top;childLayout=stackLayout;horizontal=1;startSize=38;horizontalStack=0;resizeParent=1;resizeLast=0;collapsible=1;marginBottom=0;rounded=0;shadow=0;strokeWidth=1;" parent="WIyWlLk6GJQsqaUBKTNV-1" vertex="1">
          <mxGeometry x="250" y="542" width="200" height="172" as="geometry">
            <mxRectangle x="230" y="140" width="160" height="26" as="alternateBounds" />
          </mxGeometry>
        </mxCell>
        <mxCell id="94" value="+ emaiOrUsernamel: String { readOnly }" style="text;align=left;verticalAlign=top;spacingLeft=4;spacingRight=4;overflow=hidden;rotatable=0;points=[[0,0.5],[1,0.5]];portConstraint=eastwest;rounded=0;shadow=0;html=0;" parent="91" vertex="1">
          <mxGeometry y="38" width="200" height="26" as="geometry" />
        </mxCell>
        <mxCell id="96" value="+ password: String { readOnly }" style="text;align=left;verticalAlign=top;spacingLeft=4;spacingRight=4;overflow=hidden;rotatable=0;points=[[0,0.5],[1,0.5]];portConstraint=eastwest;rounded=0;shadow=0;html=0;" parent="91" vertex="1">
          <mxGeometry y="64" width="200" height="26" as="geometry" />
        </mxCell>
        <mxCell id="97" value="" style="line;html=1;strokeWidth=1;align=left;verticalAlign=middle;spacingTop=-1;spacingLeft=3;spacingRight=3;rotatable=0;labelPosition=right;points=[];portConstraint=eastwest;" parent="91" vertex="1">
          <mxGeometry y="90" width="200" height="8" as="geometry" />
        </mxCell>
        <mxCell id="98" value="+ LoginDTO(&#xa;        emailOrUsername: String,&#xa;        password: String&#xa;    )" style="text;align=left;verticalAlign=top;spacingLeft=4;spacingRight=4;overflow=hidden;rotatable=0;points=[[0,0.5],[1,0.5]];portConstraint=eastwest;rounded=0;shadow=0;html=0;" parent="91" vertex="1">
          <mxGeometry y="98" width="200" height="74" as="geometry" />
        </mxCell>
        <mxCell id="99" value="Use" style="endArrow=open;endSize=12;dashed=1;html=1;rounded=0;" parent="WIyWlLk6GJQsqaUBKTNV-1" source="91" target="NYYMoiH2fDYC1uSWcf2y-2" edge="1">
          <mxGeometry width="160" relative="1" as="geometry">
            <mxPoint x="250" y="386.66666666666663" as="sourcePoint" />
            <mxPoint x="330" y="380" as="targetPoint" />
          </mxGeometry>
        </mxCell>
        <mxCell id="106" value="&lt;&lt;data class&gt;&gt;&#xa;RegisterDTO" style="swimlane;fontStyle=0;align=center;verticalAlign=top;childLayout=stackLayout;horizontal=1;startSize=40;horizontalStack=0;resizeParent=1;resizeLast=0;collapsible=1;marginBottom=0;rounded=0;shadow=0;strokeWidth=1;" parent="WIyWlLk6GJQsqaUBKTNV-1" vertex="1">
          <mxGeometry x="40" y="230" width="200" height="284" as="geometry">
            <mxRectangle x="230" y="140" width="160" height="26" as="alternateBounds" />
          </mxGeometry>
        </mxCell>
        <mxCell id="107" value="+ firstName: String { readOnly }" style="text;align=left;verticalAlign=top;spacingLeft=4;spacingRight=4;overflow=hidden;rotatable=0;points=[[0,0.5],[1,0.5]];portConstraint=eastwest;" parent="106" vertex="1">
          <mxGeometry y="40" width="200" height="26" as="geometry" />
        </mxCell>
        <mxCell id="108" value="+ lastName: String { readOnly }" style="text;align=left;verticalAlign=top;spacingLeft=4;spacingRight=4;overflow=hidden;rotatable=0;points=[[0,0.5],[1,0.5]];portConstraint=eastwest;rounded=0;shadow=0;html=0;" parent="106" vertex="1">
          <mxGeometry y="66" width="200" height="26" as="geometry" />
        </mxCell>
        <mxCell id="109" value="+ email: String { readOnly }" style="text;align=left;verticalAlign=top;spacingLeft=4;spacingRight=4;overflow=hidden;rotatable=0;points=[[0,0.5],[1,0.5]];portConstraint=eastwest;rounded=0;shadow=0;html=0;" parent="106" vertex="1">
          <mxGeometry y="92" width="200" height="26" as="geometry" />
        </mxCell>
        <mxCell id="110" value="+ username: String { readOnly }" style="text;align=left;verticalAlign=top;spacingLeft=4;spacingRight=4;overflow=hidden;rotatable=0;points=[[0,0.5],[1,0.5]];portConstraint=eastwest;rounded=0;shadow=0;html=0;" parent="106" vertex="1">
          <mxGeometry y="118" width="200" height="26" as="geometry" />
        </mxCell>
        <mxCell id="111" value="+ password: String { readOnly }" style="text;align=left;verticalAlign=top;spacingLeft=4;spacingRight=4;overflow=hidden;rotatable=0;points=[[0,0.5],[1,0.5]];portConstraint=eastwest;rounded=0;shadow=0;html=0;" parent="106" vertex="1">
          <mxGeometry y="144" width="200" height="26" as="geometry" />
        </mxCell>
        <mxCell id="112" value="" style="line;html=1;strokeWidth=1;align=left;verticalAlign=middle;spacingTop=-1;spacingLeft=3;spacingRight=3;rotatable=0;labelPosition=right;points=[];portConstraint=eastwest;" parent="106" vertex="1">
          <mxGeometry y="170" width="200" height="8" as="geometry" />
        </mxCell>
        <mxCell id="113" value="+ RegisterDTO(&#xa;        firstName: String, &#xa;        lastName: String,&#xa;        email: String,&#xa;        username: String,&#xa;        password: String&#xa;    )" style="text;align=left;verticalAlign=top;spacingLeft=4;spacingRight=4;overflow=hidden;rotatable=0;points=[[0,0.5],[1,0.5]];portConstraint=eastwest;rounded=0;shadow=0;html=0;" parent="106" vertex="1">
          <mxGeometry y="178" width="200" height="106" as="geometry" />
        </mxCell>
        <mxCell id="114" value="Use" style="endArrow=open;endSize=12;dashed=1;html=1;rounded=0;" parent="WIyWlLk6GJQsqaUBKTNV-1" source="106" target="NYYMoiH2fDYC1uSWcf2y-2" edge="1">
          <mxGeometry width="160" relative="1" as="geometry">
            <mxPoint x="404.94382022471905" y="552" as="sourcePoint" />
            <mxPoint x="451.01123595505624" y="470" as="targetPoint" />
          </mxGeometry>
        </mxCell>
        <mxCell id="115" value="" style="endArrow=block;dashed=1;endFill=0;endSize=12;html=1;rounded=0;" parent="WIyWlLk6GJQsqaUBKTNV-1" source="NYYMoiH2fDYC1uSWcf2y-370" target="NYYMoiH2fDYC1uSWcf2y-366" edge="1">
          <mxGeometry width="160" relative="1" as="geometry">
            <mxPoint x="330" y="206.47058823529414" as="sourcePoint" />
            <mxPoint x="404.28571428571445" y="260" as="targetPoint" />
          </mxGeometry>
        </mxCell>
        <mxCell id="116" value="" style="endArrow=block;dashed=1;endFill=0;endSize=12;html=1;rounded=0;" parent="WIyWlLk6GJQsqaUBKTNV-1" source="NYYMoiH2fDYC1uSWcf2y-387" target="NYYMoiH2fDYC1uSWcf2y-366" edge="1">
          <mxGeometry width="160" relative="1" as="geometry">
            <mxPoint x="1005.4545454545455" y="149.9999999999999" as="sourcePoint" />
            <mxPoint x="882.7272727272725" y="240" as="targetPoint" />
          </mxGeometry>
        </mxCell>
        <mxCell id="117" value="" style="endArrow=block;dashed=1;endFill=0;endSize=12;html=1;rounded=0;" parent="WIyWlLk6GJQsqaUBKTNV-1" source="NYYMoiH2fDYC1uSWcf2y-375" target="NYYMoiH2fDYC1uSWcf2y-366" edge="1">
          <mxGeometry width="160" relative="1" as="geometry">
            <mxPoint x="1035" y="258.208695652174" as="sourcePoint" />
            <mxPoint x="930" y="261.4956521739131" as="targetPoint" />
          </mxGeometry>
        </mxCell>
        <mxCell id="118" value="" style="endArrow=block;dashed=1;endFill=0;endSize=12;html=1;rounded=0;" parent="WIyWlLk6GJQsqaUBKTNV-1" source="NYYMoiH2fDYC1uSWcf2y-383" edge="1">
          <mxGeometry width="160" relative="1" as="geometry">
            <mxPoint x="1260" y="127.20379146919436" as="sourcePoint" />
            <mxPoint x="920" y="254" as="targetPoint" />
          </mxGeometry>
        </mxCell>
        <mxCell id="119" value="" style="endArrow=block;dashed=1;endFill=0;endSize=12;html=1;rounded=0;" parent="WIyWlLk6GJQsqaUBKTNV-1" source="NYYMoiH2fDYC1uSWcf2y-379" target="NYYMoiH2fDYC1uSWcf2y-366" edge="1">
          <mxGeometry width="160" relative="1" as="geometry">
            <mxPoint x="1450" y="240.9395017793595" as="sourcePoint" />
            <mxPoint x="930" y="260.9252669039146" as="targetPoint" />
          </mxGeometry>
        </mxCell>
        <mxCell id="120" value="" style="endArrow=block;dashed=1;endFill=0;endSize=12;html=1;rounded=0;entryX=1;entryY=0.75;entryDx=0;entryDy=0;" parent="WIyWlLk6GJQsqaUBKTNV-1" source="NYYMoiH2fDYC1uSWcf2y-395" target="NYYMoiH2fDYC1uSWcf2y-366" edge="1">
          <mxGeometry width="160" relative="1" as="geometry">
            <mxPoint x="1587.5" y="95.42857142857156" as="sourcePoint" />
            <mxPoint x="930" y="245.71428571428578" as="targetPoint" />
          </mxGeometry>
        </mxCell>
        <mxCell id="121" value="Use" style="endArrow=open;endSize=12;dashed=1;html=1;rounded=0;" parent="WIyWlLk6GJQsqaUBKTNV-1" source="NYYMoiH2fDYC1uSWcf2y-239" target="NYYMoiH2fDYC1uSWcf2y-220" edge="1">
          <mxGeometry width="160" relative="1" as="geometry">
            <mxPoint x="885.614973262032" y="700" as="sourcePoint" />
            <mxPoint x="810.4278074866309" y="774" as="targetPoint" />
            <Array as="points">
              <mxPoint x="1300" y="330" />
            </Array>
          </mxGeometry>
        </mxCell>
        <mxCell id="122" value="Use" style="endArrow=open;endSize=12;dashed=1;html=1;rounded=0;" parent="WIyWlLk6GJQsqaUBKTNV-1" source="NYYMoiH2fDYC1uSWcf2y-297" target="NYYMoiH2fDYC1uSWcf2y-264" edge="1">
          <mxGeometry width="160" relative="1" as="geometry">
            <mxPoint x="955.3340292275573" y="1280" as="sourcePoint" />
            <mxPoint x="1328.528183716075" y="952" as="targetPoint" />
          </mxGeometry>
        </mxCell>
        <mxCell id="160" value="Use" style="endArrow=open;endSize=12;dashed=1;html=1;rounded=0;" parent="WIyWlLk6GJQsqaUBKTNV-1" source="NYYMoiH2fDYC1uSWcf2y-366" target="NYYMoiH2fDYC1uSWcf2y-342" edge="1">
          <mxGeometry width="160" relative="1" as="geometry">
            <mxPoint x="404.75836431226776" y="552" as="sourcePoint" />
            <mxPoint x="445.35315985130137" y="474" as="targetPoint" />
          </mxGeometry>
        </mxCell>
        <mxCell id="161" value="" style="endArrow=block;dashed=1;endFill=0;endSize=12;html=1;rounded=0;" parent="WIyWlLk6GJQsqaUBKTNV-1" source="NYYMoiH2fDYC1uSWcf2y-299" target="NYYMoiH2fDYC1uSWcf2y-297" edge="1">
          <mxGeometry width="160" relative="1" as="geometry">
            <mxPoint x="1220" y="1751.9459459459454" as="sourcePoint" />
            <mxPoint x="1302.765957446808" y="1794" as="targetPoint" />
          </mxGeometry>
        </mxCell>
        <mxCell id="162" value="" style="endArrow=block;dashed=1;endFill=0;endSize=12;html=1;rounded=0;" parent="WIyWlLk6GJQsqaUBKTNV-1" source="NYYMoiH2fDYC1uSWcf2y-304" target="NYYMoiH2fDYC1uSWcf2y-297" edge="1">
          <mxGeometry width="160" relative="1" as="geometry">
            <mxPoint x="949" y="1490.9855072463765" as="sourcePoint" />
            <mxPoint x="1035" y="1494.101449275362" as="targetPoint" />
          </mxGeometry>
        </mxCell>
        <mxCell id="163" value="" style="endArrow=block;dashed=1;endFill=0;endSize=12;html=1;rounded=0;" parent="WIyWlLk6GJQsqaUBKTNV-1" source="NYYMoiH2fDYC1uSWcf2y-310" target="NYYMoiH2fDYC1uSWcf2y-297" edge="1">
          <mxGeometry width="160" relative="1" as="geometry">
            <mxPoint x="949" y="1552.3333333333335" as="sourcePoint" />
            <mxPoint x="1042.9999999999998" y="1521" as="targetPoint" />
          </mxGeometry>
        </mxCell>
        <mxCell id="164" value="" style="endArrow=block;dashed=1;endFill=0;endSize=12;html=1;rounded=0;" parent="WIyWlLk6GJQsqaUBKTNV-1" source="NYYMoiH2fDYC1uSWcf2y-316" target="NYYMoiH2fDYC1uSWcf2y-297" edge="1">
          <mxGeometry width="160" relative="1" as="geometry">
            <mxPoint x="919" y="1655.2817869415808" as="sourcePoint" />
            <mxPoint x="1085.2808510638297" y="1521" as="targetPoint" />
          </mxGeometry>
        </mxCell>
        <mxCell id="165" value="" style="endArrow=block;dashed=1;endFill=0;endSize=12;html=1;rounded=0;" parent="WIyWlLk6GJQsqaUBKTNV-1" source="5" target="NYYMoiH2fDYC1uSWcf2y-297" edge="1">
          <mxGeometry width="160" relative="1" as="geometry">
            <mxPoint x="880.090909090909" y="1820" as="sourcePoint" />
            <mxPoint x="1097.5454545454545" y="1521" as="targetPoint" />
          </mxGeometry>
        </mxCell>
        <mxCell id="166" value="" style="endArrow=block;dashed=1;endFill=0;endSize=12;html=1;rounded=0;" parent="WIyWlLk6GJQsqaUBKTNV-1" source="NYYMoiH2fDYC1uSWcf2y-335" target="NYYMoiH2fDYC1uSWcf2y-297" edge="1">
          <mxGeometry width="160" relative="1" as="geometry">
            <mxPoint x="1119.1198979591836" y="1820" as="sourcePoint" />
            <mxPoint x="1115.3061224489793" y="1521" as="targetPoint" />
          </mxGeometry>
        </mxCell>
        <mxCell id="167" value="" style="endArrow=block;dashed=1;endFill=0;endSize=12;html=1;rounded=0;" parent="WIyWlLk6GJQsqaUBKTNV-1" source="NYYMoiH2fDYC1uSWcf2y-322" target="NYYMoiH2fDYC1uSWcf2y-297" edge="1">
          <mxGeometry width="160" relative="1" as="geometry">
            <mxPoint x="1313.8160919540228" y="1850" as="sourcePoint" />
            <mxPoint x="1128.5172413793102" y="1521" as="targetPoint" />
          </mxGeometry>
        </mxCell>
        <mxCell id="168" value="" style="endArrow=block;dashed=1;endFill=0;endSize=12;html=1;rounded=0;" parent="WIyWlLk6GJQsqaUBKTNV-1" source="NYYMoiH2fDYC1uSWcf2y-328" target="NYYMoiH2fDYC1uSWcf2y-297" edge="1">
          <mxGeometry width="160" relative="1" as="geometry">
            <mxPoint x="1321.9215686274506" y="1670" as="sourcePoint" />
            <mxPoint x="1143.705882352941" y="1521" as="targetPoint" />
          </mxGeometry>
        </mxCell>
        <mxCell id="169" value="&lt;&lt;interface&gt;&gt;&#xa;ZoteroItem" style="swimlane;fontStyle=1;align=center;verticalAlign=top;childLayout=stackLayout;horizontal=1;startSize=40;horizontalStack=0;resizeParent=1;resizeParentMax=0;resizeLast=0;collapsible=1;marginBottom=0;fontColor=default;" parent="WIyWlLk6GJQsqaUBKTNV-1" vertex="1">
          <mxGeometry x="390" y="1250" width="260" height="140" as="geometry" />
        </mxCell>
        <mxCell id="172" value="" style="line;strokeWidth=1;fillColor=none;align=left;verticalAlign=middle;spacingTop=-1;spacingLeft=3;spacingRight=3;rotatable=0;labelPosition=right;points=[];portConstraint=eastwest;strokeColor=inherit;fontColor=default;" parent="169" vertex="1">
          <mxGeometry y="40" width="260" height="8" as="geometry" />
        </mxCell>
        <mxCell id="173" value="- compare(&#xa;    fieldName: String [0..1],&#xa;    predicate: (String, ZoteroItemField) -&gt; Boolean&#xa;): Boolean" style="text;strokeColor=none;fillColor=none;align=left;verticalAlign=top;spacingLeft=4;spacingRight=4;overflow=hidden;rotatable=0;points=[[0,0.5],[1,0.5]];portConstraint=eastwest;fontColor=default;" parent="169" vertex="1">
          <mxGeometry y="48" width="260" height="64" as="geometry" />
        </mxCell>
        <mxCell id="174" value="+ search(query: SearchQuery): Boolean" style="text;strokeColor=none;fillColor=none;align=left;verticalAlign=top;spacingLeft=4;spacingRight=4;overflow=hidden;rotatable=0;points=[[0,0.5],[1,0.5]];portConstraint=eastwest;fontColor=default;" parent="169" vertex="1">
          <mxGeometry y="112" width="260" height="28" as="geometry" />
        </mxCell>
        <mxCell id="175" value="ComplexZoteroItem" style="swimlane;fontStyle=1;align=center;verticalAlign=top;childLayout=stackLayout;horizontal=1;startSize=26;horizontalStack=0;resizeParent=1;resizeParentMax=0;resizeLast=0;collapsible=1;marginBottom=0;fontColor=default;" parent="WIyWlLk6GJQsqaUBKTNV-1" vertex="1">
          <mxGeometry x="330" y="1500" width="300" height="124" as="geometry" />
        </mxCell>
        <mxCell id="176" value="+ values: HashMap&lt;String, ZoteroItem&gt; { readOnly }" style="text;strokeColor=none;fillColor=none;align=left;verticalAlign=top;spacingLeft=4;spacingRight=4;overflow=hidden;rotatable=0;points=[[0,0.5],[1,0.5]];portConstraint=eastwest;fontColor=default;" parent="175" vertex="1">
          <mxGeometry y="26" width="300" height="26" as="geometry" />
        </mxCell>
        <mxCell id="178" value="" style="line;strokeWidth=1;fillColor=none;align=left;verticalAlign=middle;spacingTop=-1;spacingLeft=3;spacingRight=3;rotatable=0;labelPosition=right;points=[];portConstraint=eastwest;strokeColor=inherit;fontColor=default;" parent="175" vertex="1">
          <mxGeometry y="52" width="300" height="8" as="geometry" />
        </mxCell>
        <mxCell id="179" value="+ ComplexZoteroItem(&#xa;        values: Hashmap&lt;String, ZoteroItem&gt;&#xa;    )" style="text;strokeColor=none;fillColor=none;align=left;verticalAlign=top;spacingLeft=4;spacingRight=4;overflow=hidden;rotatable=0;points=[[0,0.5],[1,0.5]];portConstraint=eastwest;fontColor=default;" parent="175" vertex="1">
          <mxGeometry y="60" width="300" height="64" as="geometry" />
        </mxCell>
        <mxCell id="180" value="" style="endArrow=block;dashed=1;endFill=0;endSize=12;html=1;rounded=0;" parent="WIyWlLk6GJQsqaUBKTNV-1" source="175" target="169" edge="1">
          <mxGeometry width="160" relative="1" as="geometry">
            <mxPoint x="825.9197324414715" y="1082" as="sourcePoint" />
            <mxPoint x="786.7892976588628" y="952" as="targetPoint" />
          </mxGeometry>
        </mxCell>
        <mxCell id="188" value="" style="group" parent="WIyWlLk6GJQsqaUBKTNV-1" vertex="1" connectable="0">
          <mxGeometry x="560" y="1390" width="20" height="20" as="geometry" />
        </mxCell>
        <mxCell id="184" value="1..*" style="text;html=1;strokeColor=none;fillColor=none;align=center;verticalAlign=middle;whiteSpace=wrap;rounded=0;" parent="188" vertex="1">
          <mxGeometry width="20" height="20" as="geometry" />
        </mxCell>
        <mxCell id="182" value="1" style="endArrow=open;html=1;endSize=12;startArrow=diamondThin;startSize=14;startFill=0;edgeStyle=orthogonalEdgeStyle;align=left;verticalAlign=bottom;rounded=0;exitX=0.75;exitY=0;exitDx=0;exitDy=0;entryX=0.611;entryY=1.007;entryDx=0;entryDy=0;entryPerimeter=0;" parent="WIyWlLk6GJQsqaUBKTNV-1" source="175" target="174" edge="1">
          <mxGeometry x="-0.8621" y="-15" relative="1" as="geometry">
            <mxPoint x="610" y="1361.6666666666667" as="sourcePoint" />
            <mxPoint x="663.3333333333334" y="1361.6666666666667" as="targetPoint" />
            <mxPoint as="offset" />
          </mxGeometry>
        </mxCell>
        <mxCell id="191" value="ZoteroItemField" style="swimlane;fontStyle=1;align=center;verticalAlign=top;childLayout=stackLayout;horizontal=1;startSize=26;horizontalStack=0;resizeParent=1;resizeParentMax=0;resizeLast=0;collapsible=1;marginBottom=0;fontColor=default;" parent="WIyWlLk6GJQsqaUBKTNV-1" vertex="1">
          <mxGeometry x="330" y="996" width="220" height="124" as="geometry" />
        </mxCell>
        <mxCell id="192" value="+ value: String { readOnly }" style="text;strokeColor=none;fillColor=none;align=left;verticalAlign=top;spacingLeft=4;spacingRight=4;overflow=hidden;rotatable=0;points=[[0,0.5],[1,0.5]];portConstraint=eastwest;fontColor=default;" parent="191" vertex="1">
          <mxGeometry y="26" width="220" height="26" as="geometry" />
        </mxCell>
        <mxCell id="194" value="" style="line;strokeWidth=1;fillColor=none;align=left;verticalAlign=middle;spacingTop=-1;spacingLeft=3;spacingRight=3;rotatable=0;labelPosition=right;points=[];portConstraint=eastwest;strokeColor=inherit;fontColor=default;" parent="191" vertex="1">
          <mxGeometry y="52" width="220" height="8" as="geometry" />
        </mxCell>
        <mxCell id="195" value="+ ZoteroItemField(&#xa;        value: String,&#xa;    )" style="text;strokeColor=none;fillColor=none;align=left;verticalAlign=top;spacingLeft=4;spacingRight=4;overflow=hidden;rotatable=0;points=[[0,0.5],[1,0.5]];portConstraint=eastwest;fontColor=default;" parent="191" vertex="1">
          <mxGeometry y="60" width="220" height="64" as="geometry" />
        </mxCell>
        <mxCell id="196" value="" style="endArrow=block;dashed=1;endFill=0;endSize=12;html=1;rounded=0;" parent="WIyWlLk6GJQsqaUBKTNV-1" source="191" target="169" edge="1">
          <mxGeometry width="160" relative="1" as="geometry">
            <mxPoint x="500.2479338842975" y="1510" as="sourcePoint" />
            <mxPoint x="518.4297520661157" y="1400" as="targetPoint" />
          </mxGeometry>
        </mxCell>
        <mxCell id="197" value="1" style="endArrow=open;html=1;endSize=12;startArrow=diamondThin;startSize=14;startFill=0;edgeStyle=orthogonalEdgeStyle;align=left;verticalAlign=bottom;rounded=0;" parent="WIyWlLk6GJQsqaUBKTNV-1" source="169" target="NYYMoiH2fDYC1uSWcf2y-178" edge="1">
          <mxGeometry x="-0.8621" y="-15" relative="1" as="geometry">
            <mxPoint x="565" y="1510" as="sourcePoint" />
            <mxPoint x="558.8599999999999" y="1400.196" as="targetPoint" />
            <mxPoint as="offset" />
          </mxGeometry>
        </mxCell>
        <mxCell id="199" value="0..*" style="text;html=1;strokeColor=none;fillColor=none;align=center;verticalAlign=middle;whiteSpace=wrap;rounded=0;" parent="WIyWlLk6GJQsqaUBKTNV-1" vertex="1">
          <mxGeometry x="700" y="1320" width="60" height="30" as="geometry" />
        </mxCell>
        <mxCell id="200" value="Use" style="endArrow=open;endSize=12;dashed=1;html=1;rounded=0;" parent="WIyWlLk6GJQsqaUBKTNV-1" source="NYYMoiH2fDYC1uSWcf2y-141" target="169" edge="1">
          <mxGeometry width="160" relative="1" as="geometry">
            <mxPoint x="530" y="847.2926829268292" as="sourcePoint" />
            <mxPoint x="450" y="841.8292682926829" as="targetPoint" />
          </mxGeometry>
        </mxCell>
        <mxCell id="202" value="Use" style="endArrow=open;endSize=12;dashed=1;html=1;rounded=0;" parent="WIyWlLk6GJQsqaUBKTNV-1" source="169" target="NYYMoiH2fDYC1uSWcf2y-188" edge="1">
          <mxGeometry width="160" relative="1" as="geometry">
            <mxPoint x="955.3340292275573" y="1280" as="sourcePoint" />
            <mxPoint x="1313.7369519832982" y="965" as="targetPoint" />
          </mxGeometry>
        </mxCell>
        <mxCell id="203" value="&lt;&lt;enumeraqation&gt;&gt;&#xa;CitationStyle" style="swimlane;fontStyle=0;childLayout=stackLayout;horizontal=1;startSize=40;fillColor=none;horizontalStack=0;resizeParent=1;resizeParentMax=0;resizeLast=0;collapsible=1;marginBottom=0;" parent="WIyWlLk6GJQsqaUBKTNV-1" vertex="1">
          <mxGeometry x="1555" y="1920" width="210" height="92" as="geometry" />
        </mxCell>
        <mxCell id="204" value="AmericanChemicalSociety" style="text;strokeColor=none;fillColor=none;align=left;verticalAlign=top;spacingLeft=4;spacingRight=4;overflow=hidden;rotatable=0;points=[[0,0.5],[1,0.5]];portConstraint=eastwest;" parent="203" vertex="1">
          <mxGeometry y="40" width="210" height="26" as="geometry" />
        </mxCell>
        <mxCell id="208" value="AmericanPsychologicalAssociation" style="text;strokeColor=none;fillColor=none;align=left;verticalAlign=top;spacingLeft=4;spacingRight=4;overflow=hidden;rotatable=0;points=[[0,0.5],[1,0.5]];portConstraint=eastwest;" parent="203" vertex="1">
          <mxGeometry y="66" width="210" height="26" as="geometry" />
        </mxCell>
        <mxCell id="209" value="Use" style="endArrow=open;endSize=12;dashed=1;html=1;rounded=0;" parent="WIyWlLk6GJQsqaUBKTNV-1" source="203" target="naM0Vag8xCBrJSv8B079-0" edge="1">
          <mxGeometry width="160" relative="1" as="geometry">
            <mxPoint x="1141.7206477732793" y="1473" as="sourcePoint" />
            <mxPoint x="1256.396761133603" y="1370" as="targetPoint" />
          </mxGeometry>
        </mxCell>
      </root>
    </mxGraphModel>
  </diagram>
</mxfile>
